M48
; DRILL file {KiCad 8.0.4} date 2024-07-31T13:10:49-0400
; FORMAT={-:-/ absolute / inch / decimal}
; #@! TF.CreationDate,2024-07-31T13:10:49-04:00
; #@! TF.GenerationSoftware,Kicad,Pcbnew,8.0.4
; #@! TF.FileFunction,Plated,1,2,PTH
FMAT,2
INCH
; #@! TA.AperFunction,Plated,PTH,ViaDrill
T1C0.0118
; #@! TA.AperFunction,Plated,PTH,ComponentDrill
T2C0.0197
; #@! TA.AperFunction,Plated,PTH,ComponentDrill
T3C0.0236
; #@! TA.AperFunction,Plated,PTH,ComponentDrill
T4C0.0276
; #@! TA.AperFunction,Plated,PTH,ComponentDrill
T5C0.0512
; #@! TA.AperFunction,Plated,PTH,ComponentDrill
T6C0.1693
%
G90
G05
T1
X3.3061Y-2.9459
X3.4852Y-3.7244
X3.4921Y-3.4134
X3.5561Y-3.3874
X3.6093Y-3.7234
X3.6358Y-3.4823
X3.6713Y-3.9222
X3.685Y-3.2146
X3.8159Y-2.9232
X3.8169Y-3.2146
X3.8819Y-3.4744
X4.0404Y-3.0197
X4.0404Y-3.1033
X4.1959Y-3.0994
X4.253Y-2.9252
X4.253Y-3.1545
X4.2894Y-3.748
X4.2894Y-3.8287
X4.2972Y-4.0039
X4.3159Y-2.7943
X4.3553Y-4.0039
X4.438Y-4.1762
X4.5138Y-4.0039
X4.5837Y-3.1654
X4.7087Y-3.4518
X4.7116Y-3.1919
X4.7736Y-3.0335
X4.8337Y-3.7057
X5.0443Y-3.4518
T2
X3.9419Y-2.9803
X3.9911Y-2.9803
X4.0404Y-2.9803
X4.06Y-4.1063
X4.0896Y-2.9803
X4.1093Y-4.1063
X4.1585Y-4.1063
X4.2077Y-4.1063
T3
X2.9329Y-4.1547
X2.935Y-3.013
X2.97Y-4.065
X2.97Y-4.2445
X2.9722Y-2.9232
X2.9722Y-3.1028
X3.0598Y-4.0278
X3.0598Y-4.2817
X3.062Y-2.886
X3.062Y-3.14
X3.1496Y-4.065
X3.1496Y-4.2445
X3.1518Y-2.9232
X3.1518Y-3.1028
X3.1868Y-4.1547
X3.189Y-3.013
X5.0195Y-4.1547
X5.0207Y-3.0118
X5.0567Y-4.065
X5.0567Y-4.2445
X5.0579Y-2.922
X5.0579Y-3.1016
X5.1464Y-4.0278
X5.1464Y-4.2817
X5.1476Y-2.8848
X5.1476Y-3.1388
X5.2362Y-4.065
X5.2362Y-4.2445
X5.2374Y-2.922
X5.2374Y-3.1016
X5.2734Y-4.1547
X5.2746Y-3.0118
T4
X4.5118Y-2.9028
X4.5118Y-2.9528
X4.5618Y-2.9028
X4.5618Y-2.9528
X4.6118Y-2.9028
X4.6118Y-2.9528
X4.6618Y-2.9028
X4.6618Y-2.9528
X4.7118Y-2.9028
X4.7118Y-2.9528
T5
X3.0354Y-3.3858
X3.0354Y-3.5827
X3.0354Y-3.7795
T6
X3.0598Y-4.1547
X3.062Y-3.013
X5.1464Y-4.1547
X5.1476Y-3.0118
T2
G00X5.2677Y-3.4252
M15
G01X5.2402Y-3.4252
M16
G05
G00X5.2677Y-3.685
M15
G01X5.2402Y-3.685
M16
G05
M30
