%TF.GenerationSoftware,KiCad,Pcbnew,8.0.4*%
%TF.CreationDate,2024-07-31T13:10:52-04:00*%
%TF.ProjectId,STM32F405RGT6,53544d33-3246-4343-9035-524754362e6b,rev?*%
%TF.SameCoordinates,Original*%
%TF.FileFunction,Copper,L2,Bot*%
%TF.FilePolarity,Positive*%
%FSLAX46Y46*%
G04 Gerber Fmt 4.6, Leading zero omitted, Abs format (unit mm)*
G04 Created by KiCad (PCBNEW 8.0.4) date 2024-07-31 13:10:52*
%MOMM*%
%LPD*%
G01*
G04 APERTURE LIST*
G04 Aperture macros list*
%AMRoundRect*
0 Rectangle with rounded corners*
0 $1 Rounding radius*
0 $2 $3 $4 $5 $6 $7 $8 $9 X,Y pos of 4 corners*
0 Add a 4 corners polygon primitive as box body*
4,1,4,$2,$3,$4,$5,$6,$7,$8,$9,$2,$3,0*
0 Add four circle primitives for the rounded corners*
1,1,$1+$1,$2,$3*
1,1,$1+$1,$4,$5*
1,1,$1+$1,$6,$7*
1,1,$1+$1,$8,$9*
0 Add four rect primitives between the rounded corners*
20,1,$1+$1,$2,$3,$4,$5,0*
20,1,$1+$1,$4,$5,$6,$7,0*
20,1,$1+$1,$6,$7,$8,$9,0*
20,1,$1+$1,$8,$9,$2,$3,0*%
G04 Aperture macros list end*
%TA.AperFunction,ComponentPad*%
%ADD10O,1.600000X0.900000*%
%TD*%
%TA.AperFunction,ComponentPad*%
%ADD11RoundRect,0.200000X-0.200000X-0.450000X0.200000X-0.450000X0.200000X0.450000X-0.200000X0.450000X0*%
%TD*%
%TA.AperFunction,ComponentPad*%
%ADD12O,0.800000X1.300000*%
%TD*%
%TA.AperFunction,ComponentPad*%
%ADD13RoundRect,0.200000X0.200000X0.450000X-0.200000X0.450000X-0.200000X-0.450000X0.200000X-0.450000X0*%
%TD*%
%TA.AperFunction,ComponentPad*%
%ADD14R,1.000000X1.000000*%
%TD*%
%TA.AperFunction,ComponentPad*%
%ADD15O,1.000000X1.000000*%
%TD*%
%TA.AperFunction,ComponentPad*%
%ADD16R,2.600000X2.600000*%
%TD*%
%TA.AperFunction,ComponentPad*%
%ADD17C,2.600000*%
%TD*%
%TA.AperFunction,ComponentPad*%
%ADD18C,0.900000*%
%TD*%
%TA.AperFunction,ComponentPad*%
%ADD19C,8.600000*%
%TD*%
%TA.AperFunction,ViaPad*%
%ADD20C,0.600000*%
%TD*%
%TA.AperFunction,Conductor*%
%ADD21C,0.300000*%
%TD*%
G04 APERTURE END LIST*
D10*
%TO.P,J5,6,Shield*%
%TO.N,unconnected-(J5-Shield-Pad6)_1*%
X133450000Y-93600000D03*
%TO.N,unconnected-(J5-Shield-Pad6)_3*%
X133450000Y-87000000D03*
%TD*%
D11*
%TO.P,J4,1,Pin_1*%
%TO.N,+3.3V*%
X103125000Y-104300000D03*
D12*
%TO.P,J4,2,Pin_2*%
%TO.N,USART3_TX*%
X104375000Y-104300000D03*
%TO.P,J4,3,Pin_3*%
%TO.N,USART3_RX*%
X105625000Y-104300000D03*
%TO.P,J4,4,Pin_4*%
%TO.N,GND*%
X106875000Y-104300000D03*
%TD*%
D13*
%TO.P,J3,1,Pin_1*%
%TO.N,+3.3V*%
X103875000Y-75700000D03*
D12*
%TO.P,J3,2,Pin_2*%
%TO.N,I2C1_SCL*%
X102625000Y-75700000D03*
%TO.P,J3,3,Pin_3*%
%TO.N,I2C1_SDA*%
X101375000Y-75700000D03*
%TO.P,J3,4,Pin_4*%
%TO.N,GND*%
X100125000Y-75700000D03*
%TD*%
D14*
%TO.P,J2,1,Pin_1*%
%TO.N,+3.3VA*%
X119680000Y-75000000D03*
D15*
%TO.P,J2,2,Pin_2*%
%TO.N,Net-(J2-Pin_2)*%
X119680000Y-73730000D03*
%TO.P,J2,3,Pin_3*%
%TO.N,GND*%
X118410000Y-75000000D03*
%TO.P,J2,4,Pin_4*%
%TO.N,SWCLK*%
X118410000Y-73730000D03*
%TO.P,J2,5,Pin_5*%
%TO.N,GND*%
X117140000Y-75000000D03*
%TO.P,J2,6,Pin_6*%
%TO.N,SWO*%
X117140000Y-73730000D03*
%TO.P,J2,7,Pin_7*%
%TO.N,unconnected-(J2-Pin_7-Pad7)*%
X115870000Y-75000000D03*
%TO.P,J2,8,Pin_8*%
%TO.N,unconnected-(J2-Pin_8-Pad8)*%
X115870000Y-73730000D03*
%TO.P,J2,9,Pin_9*%
%TO.N,GND*%
X114600000Y-75000000D03*
%TO.P,J2,10,Pin_10*%
%TO.N,NRST*%
X114600000Y-73730000D03*
%TD*%
D16*
%TO.P,J1,1,Pin_1*%
%TO.N,+3.3V*%
X77100000Y-86000000D03*
D17*
%TO.P,J1,2,Pin_2*%
%TO.N,+3.3VA*%
X77100000Y-91000000D03*
%TO.P,J1,3,Pin_3*%
%TO.N,GND*%
X77100000Y-96000000D03*
%TD*%
D18*
%TO.P,H4,1,1*%
%TO.N,GND*%
X74494581Y-105530419D03*
X75439162Y-103250000D03*
X75439162Y-107810838D03*
X77719581Y-102305419D03*
D19*
X77719581Y-105530419D03*
D18*
X77719581Y-108755419D03*
X80000000Y-103250000D03*
X80000000Y-107810838D03*
X80944581Y-105530419D03*
%TD*%
%TO.P,H3,1,1*%
%TO.N,GND*%
X127494581Y-105530419D03*
X128439162Y-103250000D03*
X128439162Y-107810838D03*
X130719581Y-102305419D03*
D19*
X130719581Y-105530419D03*
D18*
X130719581Y-108755419D03*
X133000000Y-103250000D03*
X133000000Y-107810838D03*
X133944581Y-105530419D03*
%TD*%
%TO.P,H2,1,1*%
%TO.N,GND*%
X127525000Y-76500000D03*
X128469581Y-74219581D03*
X128469581Y-78780419D03*
X130750000Y-73275000D03*
D19*
X130750000Y-76500000D03*
D18*
X130750000Y-79725000D03*
X133030419Y-74219581D03*
X133030419Y-78780419D03*
X133975000Y-76500000D03*
%TD*%
%TO.P,H1,1,1*%
%TO.N,GND*%
X74550000Y-76530419D03*
X75494581Y-74250000D03*
X75494581Y-78810838D03*
X77775000Y-73305419D03*
D19*
X77775000Y-76530419D03*
D18*
X77775000Y-79755419D03*
X80055419Y-74250000D03*
X80055419Y-78810838D03*
X81000000Y-76530419D03*
%TD*%
D20*
%TO.N,SWCLK*%
X108025000Y-80125000D03*
X108025000Y-74300000D03*
X109625000Y-70975000D03*
%TO.N,SWO*%
X106575000Y-78725000D03*
%TO.N,+3.3VA*%
X119675000Y-81075000D03*
%TO.N,SWDIO*%
X121250000Y-77050000D03*
X116425000Y-80400000D03*
%TO.N,+3.3VA*%
X93250000Y-99625000D03*
%TO.N,+3.3V*%
X112725000Y-106075000D03*
X114650000Y-101700000D03*
%TO.N,+3.3VA*%
X110625000Y-101700000D03*
X109150000Y-101700000D03*
%TO.N,NRST*%
X98600000Y-88250000D03*
%TO.N,GND*%
X83975000Y-74825000D03*
X96925000Y-74250000D03*
%TO.N,I2C1_SCL*%
X102625000Y-76700000D03*
X102625000Y-78825000D03*
%TO.N,BOOT0*%
X93600000Y-81650000D03*
X96950000Y-81650000D03*
%TO.N,HSE_OUT*%
X92350000Y-88450000D03*
X91675000Y-94575000D03*
%TO.N,GND*%
X90325000Y-86039998D03*
X88700000Y-86700000D03*
X88525000Y-94600000D03*
X122775000Y-94125000D03*
X128125000Y-87675000D03*
X119600000Y-87675000D03*
%TO.N,+3.3V*%
X108950000Y-95200000D03*
X108950000Y-97250000D03*
%TD*%
D21*
%TO.N,SWCLK*%
X108025000Y-74300000D02*
X108025000Y-80125000D01*
X117625000Y-70975000D02*
X109625000Y-70975000D01*
X117800000Y-70975000D02*
X117625000Y-70975000D01*
X118025000Y-71200000D02*
X117800000Y-70975000D01*
X118410000Y-73730000D02*
X118410000Y-71585000D01*
X118410000Y-71585000D02*
X118025000Y-71200000D01*
%TO.N,SWO*%
X117140000Y-72340000D02*
X117140000Y-73730000D01*
X116750000Y-71950000D02*
X117140000Y-72340000D01*
X107425000Y-71950000D02*
X116750000Y-71950000D01*
X106575000Y-72800000D02*
X107425000Y-71950000D01*
X106575000Y-78725000D02*
X106575000Y-72800000D01*
%TO.N,+3.3VA*%
X119675000Y-82475000D02*
X119675000Y-81075000D01*
X119225000Y-82925000D02*
X119675000Y-82475000D01*
X114250000Y-82925000D02*
X119225000Y-82925000D01*
X113700000Y-83475000D02*
X114250000Y-82925000D01*
X111750000Y-85425000D02*
X113700000Y-83475000D01*
X110800000Y-93600000D02*
X111750000Y-92650000D01*
X111750000Y-92650000D02*
X111750000Y-85425000D01*
X110625000Y-93750000D02*
X110775000Y-93600000D01*
X110775000Y-93600000D02*
X110800000Y-93600000D01*
X110625000Y-101700000D02*
X110625000Y-93750000D01*
%TO.N,SWDIO*%
X117225000Y-77050000D02*
X121250000Y-77050000D01*
X116425000Y-77850000D02*
X117225000Y-77050000D01*
X116425000Y-80400000D02*
X116425000Y-77850000D01*
%TO.N,+3.3VA*%
X107075000Y-99625000D02*
X109150000Y-101700000D01*
X93250000Y-99625000D02*
X107075000Y-99625000D01*
%TO.N,+3.3V*%
X115400000Y-102450000D02*
X114650000Y-101700000D01*
X115400000Y-106100000D02*
X115400000Y-102450000D01*
X115375000Y-106075000D02*
X115400000Y-106100000D01*
X112725000Y-106075000D02*
X115375000Y-106075000D01*
%TO.N,+3.3VA*%
X109150000Y-101700000D02*
X110625000Y-101700000D01*
%TO.N,NRST*%
X112095000Y-73730000D02*
X114600000Y-73730000D01*
X111400000Y-74425000D02*
X112095000Y-73730000D01*
X111400000Y-80775000D02*
X111400000Y-74425000D01*
X106450000Y-85725000D02*
X111400000Y-80775000D01*
X106450000Y-87450000D02*
X106450000Y-85725000D01*
X105650000Y-88250000D02*
X106450000Y-87450000D01*
X98600000Y-88250000D02*
X105650000Y-88250000D01*
%TO.N,GND*%
X83975000Y-71400000D02*
X83975000Y-74825000D01*
X93925000Y-70850000D02*
X84525000Y-70850000D01*
X84525000Y-70850000D02*
X83975000Y-71400000D01*
X94400000Y-71325000D02*
X93925000Y-70850000D01*
X94400000Y-73775000D02*
X94400000Y-71325000D01*
X94875000Y-74250000D02*
X94400000Y-73775000D01*
X96925000Y-74250000D02*
X94875000Y-74250000D01*
%TO.N,I2C1_SCL*%
X102625000Y-76700000D02*
X102625000Y-78825000D01*
%TO.N,BOOT0*%
X96950000Y-81650000D02*
X93600000Y-81650000D01*
%TO.N,HSE_OUT*%
X91675000Y-94575000D02*
X91675000Y-89125000D01*
X91675000Y-89125000D02*
X92175000Y-88625000D01*
X92175000Y-88625000D02*
X92350000Y-88450000D01*
%TO.N,GND*%
X90325000Y-86100000D02*
X90325000Y-86039998D01*
X90150000Y-86275000D02*
X90325000Y-86100000D01*
X88700000Y-86275000D02*
X90150000Y-86275000D01*
X88700000Y-86700000D02*
X88700000Y-86275000D01*
X88525000Y-94600000D02*
X78500000Y-94600000D01*
X78500000Y-94600000D02*
X77100000Y-96000000D01*
X122775000Y-87675000D02*
X128125000Y-87675000D01*
X122775000Y-94125000D02*
X122775000Y-87675000D01*
X119600000Y-87675000D02*
X122775000Y-87675000D01*
%TO.N,+3.3V*%
X108950000Y-95200000D02*
X108950000Y-97250000D01*
%TD*%
M02*
