%TF.GenerationSoftware,KiCad,Pcbnew,8.0.4*%
%TF.CreationDate,2024-07-31T13:10:52-04:00*%
%TF.ProjectId,STM32F405RGT6,53544d33-3246-4343-9035-524754362e6b,rev?*%
%TF.SameCoordinates,Original*%
%TF.FileFunction,Legend,Top*%
%TF.FilePolarity,Positive*%
%FSLAX46Y46*%
G04 Gerber Fmt 4.6, Leading zero omitted, Abs format (unit mm)*
G04 Created by KiCad (PCBNEW 8.0.4) date 2024-07-31 13:10:52*
%MOMM*%
%LPD*%
G01*
G04 APERTURE LIST*
%ADD10C,0.150000*%
%ADD11C,0.120000*%
G04 APERTURE END LIST*
D10*
X87078628Y-86616190D02*
X87554819Y-86616190D01*
X86554819Y-86949523D02*
X87078628Y-86616190D01*
X87078628Y-86616190D02*
X86554819Y-86282857D01*
X87554819Y-85425714D02*
X87554819Y-85997142D01*
X87554819Y-85711428D02*
X86554819Y-85711428D01*
X86554819Y-85711428D02*
X86697676Y-85806666D01*
X86697676Y-85806666D02*
X86792914Y-85901904D01*
X86792914Y-85901904D02*
X86840533Y-85997142D01*
X116850595Y-89554819D02*
X116850595Y-90364342D01*
X116850595Y-90364342D02*
X116898214Y-90459580D01*
X116898214Y-90459580D02*
X116945833Y-90507200D01*
X116945833Y-90507200D02*
X117041071Y-90554819D01*
X117041071Y-90554819D02*
X117231547Y-90554819D01*
X117231547Y-90554819D02*
X117326785Y-90507200D01*
X117326785Y-90507200D02*
X117374404Y-90459580D01*
X117374404Y-90459580D02*
X117422023Y-90364342D01*
X117422023Y-90364342D02*
X117422023Y-89554819D01*
X117850595Y-89650057D02*
X117898214Y-89602438D01*
X117898214Y-89602438D02*
X117993452Y-89554819D01*
X117993452Y-89554819D02*
X118231547Y-89554819D01*
X118231547Y-89554819D02*
X118326785Y-89602438D01*
X118326785Y-89602438D02*
X118374404Y-89650057D01*
X118374404Y-89650057D02*
X118422023Y-89745295D01*
X118422023Y-89745295D02*
X118422023Y-89840533D01*
X118422023Y-89840533D02*
X118374404Y-89983390D01*
X118374404Y-89983390D02*
X117802976Y-90554819D01*
X117802976Y-90554819D02*
X118422023Y-90554819D01*
X102238095Y-81054819D02*
X102238095Y-81864342D01*
X102238095Y-81864342D02*
X102285714Y-81959580D01*
X102285714Y-81959580D02*
X102333333Y-82007200D01*
X102333333Y-82007200D02*
X102428571Y-82054819D01*
X102428571Y-82054819D02*
X102619047Y-82054819D01*
X102619047Y-82054819D02*
X102714285Y-82007200D01*
X102714285Y-82007200D02*
X102761904Y-81959580D01*
X102761904Y-81959580D02*
X102809523Y-81864342D01*
X102809523Y-81864342D02*
X102809523Y-81054819D01*
X103809523Y-82054819D02*
X103238095Y-82054819D01*
X103523809Y-82054819D02*
X103523809Y-81054819D01*
X103523809Y-81054819D02*
X103428571Y-81197676D01*
X103428571Y-81197676D02*
X103333333Y-81292914D01*
X103333333Y-81292914D02*
X103238095Y-81340533D01*
X88266667Y-78007200D02*
X88409524Y-78054819D01*
X88409524Y-78054819D02*
X88647619Y-78054819D01*
X88647619Y-78054819D02*
X88742857Y-78007200D01*
X88742857Y-78007200D02*
X88790476Y-77959580D01*
X88790476Y-77959580D02*
X88838095Y-77864342D01*
X88838095Y-77864342D02*
X88838095Y-77769104D01*
X88838095Y-77769104D02*
X88790476Y-77673866D01*
X88790476Y-77673866D02*
X88742857Y-77626247D01*
X88742857Y-77626247D02*
X88647619Y-77578628D01*
X88647619Y-77578628D02*
X88457143Y-77531009D01*
X88457143Y-77531009D02*
X88361905Y-77483390D01*
X88361905Y-77483390D02*
X88314286Y-77435771D01*
X88314286Y-77435771D02*
X88266667Y-77340533D01*
X88266667Y-77340533D02*
X88266667Y-77245295D01*
X88266667Y-77245295D02*
X88314286Y-77150057D01*
X88314286Y-77150057D02*
X88361905Y-77102438D01*
X88361905Y-77102438D02*
X88457143Y-77054819D01*
X88457143Y-77054819D02*
X88695238Y-77054819D01*
X88695238Y-77054819D02*
X88838095Y-77102438D01*
X89171429Y-77054819D02*
X89409524Y-78054819D01*
X89409524Y-78054819D02*
X89600000Y-77340533D01*
X89600000Y-77340533D02*
X89790476Y-78054819D01*
X89790476Y-78054819D02*
X90028572Y-77054819D01*
X90933333Y-78054819D02*
X90361905Y-78054819D01*
X90647619Y-78054819D02*
X90647619Y-77054819D01*
X90647619Y-77054819D02*
X90552381Y-77197676D01*
X90552381Y-77197676D02*
X90457143Y-77292914D01*
X90457143Y-77292914D02*
X90361905Y-77340533D01*
X96251733Y-78712219D02*
X95918400Y-78236028D01*
X95680305Y-78712219D02*
X95680305Y-77712219D01*
X95680305Y-77712219D02*
X96061257Y-77712219D01*
X96061257Y-77712219D02*
X96156495Y-77759838D01*
X96156495Y-77759838D02*
X96204114Y-77807457D01*
X96204114Y-77807457D02*
X96251733Y-77902695D01*
X96251733Y-77902695D02*
X96251733Y-78045552D01*
X96251733Y-78045552D02*
X96204114Y-78140790D01*
X96204114Y-78140790D02*
X96156495Y-78188409D01*
X96156495Y-78188409D02*
X96061257Y-78236028D01*
X96061257Y-78236028D02*
X95680305Y-78236028D01*
X97108876Y-77712219D02*
X96918400Y-77712219D01*
X96918400Y-77712219D02*
X96823162Y-77759838D01*
X96823162Y-77759838D02*
X96775543Y-77807457D01*
X96775543Y-77807457D02*
X96680305Y-77950314D01*
X96680305Y-77950314D02*
X96632686Y-78140790D01*
X96632686Y-78140790D02*
X96632686Y-78521742D01*
X96632686Y-78521742D02*
X96680305Y-78616980D01*
X96680305Y-78616980D02*
X96727924Y-78664600D01*
X96727924Y-78664600D02*
X96823162Y-78712219D01*
X96823162Y-78712219D02*
X97013638Y-78712219D01*
X97013638Y-78712219D02*
X97108876Y-78664600D01*
X97108876Y-78664600D02*
X97156495Y-78616980D01*
X97156495Y-78616980D02*
X97204114Y-78521742D01*
X97204114Y-78521742D02*
X97204114Y-78283647D01*
X97204114Y-78283647D02*
X97156495Y-78188409D01*
X97156495Y-78188409D02*
X97108876Y-78140790D01*
X97108876Y-78140790D02*
X97013638Y-78093171D01*
X97013638Y-78093171D02*
X96823162Y-78093171D01*
X96823162Y-78093171D02*
X96727924Y-78140790D01*
X96727924Y-78140790D02*
X96680305Y-78188409D01*
X96680305Y-78188409D02*
X96632686Y-78283647D01*
X108399819Y-76691666D02*
X107923628Y-77024999D01*
X108399819Y-77263094D02*
X107399819Y-77263094D01*
X107399819Y-77263094D02*
X107399819Y-76882142D01*
X107399819Y-76882142D02*
X107447438Y-76786904D01*
X107447438Y-76786904D02*
X107495057Y-76739285D01*
X107495057Y-76739285D02*
X107590295Y-76691666D01*
X107590295Y-76691666D02*
X107733152Y-76691666D01*
X107733152Y-76691666D02*
X107828390Y-76739285D01*
X107828390Y-76739285D02*
X107876009Y-76786904D01*
X107876009Y-76786904D02*
X107923628Y-76882142D01*
X107923628Y-76882142D02*
X107923628Y-77263094D01*
X107399819Y-75786904D02*
X107399819Y-76263094D01*
X107399819Y-76263094D02*
X107876009Y-76310713D01*
X107876009Y-76310713D02*
X107828390Y-76263094D01*
X107828390Y-76263094D02*
X107780771Y-76167856D01*
X107780771Y-76167856D02*
X107780771Y-75929761D01*
X107780771Y-75929761D02*
X107828390Y-75834523D01*
X107828390Y-75834523D02*
X107876009Y-75786904D01*
X107876009Y-75786904D02*
X107971247Y-75739285D01*
X107971247Y-75739285D02*
X108209342Y-75739285D01*
X108209342Y-75739285D02*
X108304580Y-75786904D01*
X108304580Y-75786904D02*
X108352200Y-75834523D01*
X108352200Y-75834523D02*
X108399819Y-75929761D01*
X108399819Y-75929761D02*
X108399819Y-76167856D01*
X108399819Y-76167856D02*
X108352200Y-76263094D01*
X108352200Y-76263094D02*
X108304580Y-76310713D01*
X124704819Y-77641666D02*
X124228628Y-77974999D01*
X124704819Y-78213094D02*
X123704819Y-78213094D01*
X123704819Y-78213094D02*
X123704819Y-77832142D01*
X123704819Y-77832142D02*
X123752438Y-77736904D01*
X123752438Y-77736904D02*
X123800057Y-77689285D01*
X123800057Y-77689285D02*
X123895295Y-77641666D01*
X123895295Y-77641666D02*
X124038152Y-77641666D01*
X124038152Y-77641666D02*
X124133390Y-77689285D01*
X124133390Y-77689285D02*
X124181009Y-77736904D01*
X124181009Y-77736904D02*
X124228628Y-77832142D01*
X124228628Y-77832142D02*
X124228628Y-78213094D01*
X124038152Y-76784523D02*
X124704819Y-76784523D01*
X123657200Y-77022618D02*
X124371485Y-77260713D01*
X124371485Y-77260713D02*
X124371485Y-76641666D01*
X89355233Y-109504619D02*
X89021900Y-109028428D01*
X88783805Y-109504619D02*
X88783805Y-108504619D01*
X88783805Y-108504619D02*
X89164757Y-108504619D01*
X89164757Y-108504619D02*
X89259995Y-108552238D01*
X89259995Y-108552238D02*
X89307614Y-108599857D01*
X89307614Y-108599857D02*
X89355233Y-108695095D01*
X89355233Y-108695095D02*
X89355233Y-108837952D01*
X89355233Y-108837952D02*
X89307614Y-108933190D01*
X89307614Y-108933190D02*
X89259995Y-108980809D01*
X89259995Y-108980809D02*
X89164757Y-109028428D01*
X89164757Y-109028428D02*
X88783805Y-109028428D01*
X89688567Y-108504619D02*
X90307614Y-108504619D01*
X90307614Y-108504619D02*
X89974281Y-108885571D01*
X89974281Y-108885571D02*
X90117138Y-108885571D01*
X90117138Y-108885571D02*
X90212376Y-108933190D01*
X90212376Y-108933190D02*
X90259995Y-108980809D01*
X90259995Y-108980809D02*
X90307614Y-109076047D01*
X90307614Y-109076047D02*
X90307614Y-109314142D01*
X90307614Y-109314142D02*
X90259995Y-109409380D01*
X90259995Y-109409380D02*
X90212376Y-109457000D01*
X90212376Y-109457000D02*
X90117138Y-109504619D01*
X90117138Y-109504619D02*
X89831424Y-109504619D01*
X89831424Y-109504619D02*
X89736186Y-109457000D01*
X89736186Y-109457000D02*
X89688567Y-109409380D01*
X89406933Y-97145019D02*
X89073600Y-96668828D01*
X88835505Y-97145019D02*
X88835505Y-96145019D01*
X88835505Y-96145019D02*
X89216457Y-96145019D01*
X89216457Y-96145019D02*
X89311695Y-96192638D01*
X89311695Y-96192638D02*
X89359314Y-96240257D01*
X89359314Y-96240257D02*
X89406933Y-96335495D01*
X89406933Y-96335495D02*
X89406933Y-96478352D01*
X89406933Y-96478352D02*
X89359314Y-96573590D01*
X89359314Y-96573590D02*
X89311695Y-96621209D01*
X89311695Y-96621209D02*
X89216457Y-96668828D01*
X89216457Y-96668828D02*
X88835505Y-96668828D01*
X89787886Y-96240257D02*
X89835505Y-96192638D01*
X89835505Y-96192638D02*
X89930743Y-96145019D01*
X89930743Y-96145019D02*
X90168838Y-96145019D01*
X90168838Y-96145019D02*
X90264076Y-96192638D01*
X90264076Y-96192638D02*
X90311695Y-96240257D01*
X90311695Y-96240257D02*
X90359314Y-96335495D01*
X90359314Y-96335495D02*
X90359314Y-96430733D01*
X90359314Y-96430733D02*
X90311695Y-96573590D01*
X90311695Y-96573590D02*
X89740267Y-97145019D01*
X89740267Y-97145019D02*
X90359314Y-97145019D01*
X86650533Y-80337819D02*
X86317200Y-79861628D01*
X86079105Y-80337819D02*
X86079105Y-79337819D01*
X86079105Y-79337819D02*
X86460057Y-79337819D01*
X86460057Y-79337819D02*
X86555295Y-79385438D01*
X86555295Y-79385438D02*
X86602914Y-79433057D01*
X86602914Y-79433057D02*
X86650533Y-79528295D01*
X86650533Y-79528295D02*
X86650533Y-79671152D01*
X86650533Y-79671152D02*
X86602914Y-79766390D01*
X86602914Y-79766390D02*
X86555295Y-79814009D01*
X86555295Y-79814009D02*
X86460057Y-79861628D01*
X86460057Y-79861628D02*
X86079105Y-79861628D01*
X87602914Y-80337819D02*
X87031486Y-80337819D01*
X87317200Y-80337819D02*
X87317200Y-79337819D01*
X87317200Y-79337819D02*
X87221962Y-79480676D01*
X87221962Y-79480676D02*
X87126724Y-79575914D01*
X87126724Y-79575914D02*
X87031486Y-79623533D01*
X112025133Y-103326419D02*
X111548943Y-103326419D01*
X111548943Y-103326419D02*
X111548943Y-102326419D01*
X112882276Y-103326419D02*
X112310848Y-103326419D01*
X112596562Y-103326419D02*
X112596562Y-102326419D01*
X112596562Y-102326419D02*
X112501324Y-102469276D01*
X112501324Y-102469276D02*
X112406086Y-102564514D01*
X112406086Y-102564514D02*
X112310848Y-102612133D01*
X128404819Y-90633333D02*
X129119104Y-90633333D01*
X129119104Y-90633333D02*
X129261961Y-90680952D01*
X129261961Y-90680952D02*
X129357200Y-90776190D01*
X129357200Y-90776190D02*
X129404819Y-90919047D01*
X129404819Y-90919047D02*
X129404819Y-91014285D01*
X128404819Y-89680952D02*
X128404819Y-90157142D01*
X128404819Y-90157142D02*
X128881009Y-90204761D01*
X128881009Y-90204761D02*
X128833390Y-90157142D01*
X128833390Y-90157142D02*
X128785771Y-90061904D01*
X128785771Y-90061904D02*
X128785771Y-89823809D01*
X128785771Y-89823809D02*
X128833390Y-89728571D01*
X128833390Y-89728571D02*
X128881009Y-89680952D01*
X128881009Y-89680952D02*
X128976247Y-89633333D01*
X128976247Y-89633333D02*
X129214342Y-89633333D01*
X129214342Y-89633333D02*
X129309580Y-89680952D01*
X129309580Y-89680952D02*
X129357200Y-89728571D01*
X129357200Y-89728571D02*
X129404819Y-89823809D01*
X129404819Y-89823809D02*
X129404819Y-90061904D01*
X129404819Y-90061904D02*
X129357200Y-90157142D01*
X129357200Y-90157142D02*
X129309580Y-90204761D01*
X104671666Y-101804819D02*
X104671666Y-102519104D01*
X104671666Y-102519104D02*
X104624047Y-102661961D01*
X104624047Y-102661961D02*
X104528809Y-102757200D01*
X104528809Y-102757200D02*
X104385952Y-102804819D01*
X104385952Y-102804819D02*
X104290714Y-102804819D01*
X105576428Y-102138152D02*
X105576428Y-102804819D01*
X105338333Y-101757200D02*
X105100238Y-102471485D01*
X105100238Y-102471485D02*
X105719285Y-102471485D01*
X101661666Y-77104819D02*
X101661666Y-77819104D01*
X101661666Y-77819104D02*
X101614047Y-77961961D01*
X101614047Y-77961961D02*
X101518809Y-78057200D01*
X101518809Y-78057200D02*
X101375952Y-78104819D01*
X101375952Y-78104819D02*
X101280714Y-78104819D01*
X102042619Y-77104819D02*
X102661666Y-77104819D01*
X102661666Y-77104819D02*
X102328333Y-77485771D01*
X102328333Y-77485771D02*
X102471190Y-77485771D01*
X102471190Y-77485771D02*
X102566428Y-77533390D01*
X102566428Y-77533390D02*
X102614047Y-77581009D01*
X102614047Y-77581009D02*
X102661666Y-77676247D01*
X102661666Y-77676247D02*
X102661666Y-77914342D01*
X102661666Y-77914342D02*
X102614047Y-78009580D01*
X102614047Y-78009580D02*
X102566428Y-78057200D01*
X102566428Y-78057200D02*
X102471190Y-78104819D01*
X102471190Y-78104819D02*
X102185476Y-78104819D01*
X102185476Y-78104819D02*
X102090238Y-78057200D01*
X102090238Y-78057200D02*
X102042619Y-78009580D01*
X121269819Y-74698333D02*
X121984104Y-74698333D01*
X121984104Y-74698333D02*
X122126961Y-74745952D01*
X122126961Y-74745952D02*
X122222200Y-74841190D01*
X122222200Y-74841190D02*
X122269819Y-74984047D01*
X122269819Y-74984047D02*
X122269819Y-75079285D01*
X121365057Y-74269761D02*
X121317438Y-74222142D01*
X121317438Y-74222142D02*
X121269819Y-74126904D01*
X121269819Y-74126904D02*
X121269819Y-73888809D01*
X121269819Y-73888809D02*
X121317438Y-73793571D01*
X121317438Y-73793571D02*
X121365057Y-73745952D01*
X121365057Y-73745952D02*
X121460295Y-73698333D01*
X121460295Y-73698333D02*
X121555533Y-73698333D01*
X121555533Y-73698333D02*
X121698390Y-73745952D01*
X121698390Y-73745952D02*
X122269819Y-74317380D01*
X122269819Y-74317380D02*
X122269819Y-73698333D01*
X81614819Y-91333333D02*
X82329104Y-91333333D01*
X82329104Y-91333333D02*
X82471961Y-91380952D01*
X82471961Y-91380952D02*
X82567200Y-91476190D01*
X82567200Y-91476190D02*
X82614819Y-91619047D01*
X82614819Y-91619047D02*
X82614819Y-91714285D01*
X82614819Y-90333333D02*
X82614819Y-90904761D01*
X82614819Y-90619047D02*
X81614819Y-90619047D01*
X81614819Y-90619047D02*
X81757676Y-90714285D01*
X81757676Y-90714285D02*
X81852914Y-90809523D01*
X81852914Y-90809523D02*
X81900533Y-90904761D01*
X76957676Y-100685238D02*
X76957676Y-99685238D01*
X76957676Y-100161428D02*
X77529104Y-100161428D01*
X77529104Y-100685238D02*
X77529104Y-99685238D01*
X78433866Y-100018571D02*
X78433866Y-100685238D01*
X78195771Y-99637619D02*
X77957676Y-100351904D01*
X77957676Y-100351904D02*
X78576723Y-100351904D01*
X129957676Y-100685238D02*
X129957676Y-99685238D01*
X129957676Y-100161428D02*
X130529104Y-100161428D01*
X130529104Y-100685238D02*
X130529104Y-99685238D01*
X130910057Y-99685238D02*
X131529104Y-99685238D01*
X131529104Y-99685238D02*
X131195771Y-100066190D01*
X131195771Y-100066190D02*
X131338628Y-100066190D01*
X131338628Y-100066190D02*
X131433866Y-100113809D01*
X131433866Y-100113809D02*
X131481485Y-100161428D01*
X131481485Y-100161428D02*
X131529104Y-100256666D01*
X131529104Y-100256666D02*
X131529104Y-100494761D01*
X131529104Y-100494761D02*
X131481485Y-100589999D01*
X131481485Y-100589999D02*
X131433866Y-100637619D01*
X131433866Y-100637619D02*
X131338628Y-100685238D01*
X131338628Y-100685238D02*
X131052914Y-100685238D01*
X131052914Y-100685238D02*
X130957676Y-100637619D01*
X130957676Y-100637619D02*
X130910057Y-100589999D01*
X129988095Y-71654819D02*
X129988095Y-70654819D01*
X129988095Y-71131009D02*
X130559523Y-71131009D01*
X130559523Y-71654819D02*
X130559523Y-70654819D01*
X130988095Y-70750057D02*
X131035714Y-70702438D01*
X131035714Y-70702438D02*
X131130952Y-70654819D01*
X131130952Y-70654819D02*
X131369047Y-70654819D01*
X131369047Y-70654819D02*
X131464285Y-70702438D01*
X131464285Y-70702438D02*
X131511904Y-70750057D01*
X131511904Y-70750057D02*
X131559523Y-70845295D01*
X131559523Y-70845295D02*
X131559523Y-70940533D01*
X131559523Y-70940533D02*
X131511904Y-71083390D01*
X131511904Y-71083390D02*
X130940476Y-71654819D01*
X130940476Y-71654819D02*
X131559523Y-71654819D01*
X77013095Y-71685238D02*
X77013095Y-70685238D01*
X77013095Y-71161428D02*
X77584523Y-71161428D01*
X77584523Y-71685238D02*
X77584523Y-70685238D01*
X78584523Y-71685238D02*
X78013095Y-71685238D01*
X78298809Y-71685238D02*
X78298809Y-70685238D01*
X78298809Y-70685238D02*
X78203571Y-70828095D01*
X78203571Y-70828095D02*
X78108333Y-70923333D01*
X78108333Y-70923333D02*
X78013095Y-70970952D01*
X88720705Y-101920219D02*
X88720705Y-100920219D01*
X88720705Y-100920219D02*
X88958800Y-100920219D01*
X88958800Y-100920219D02*
X89101657Y-100967838D01*
X89101657Y-100967838D02*
X89196895Y-101063076D01*
X89196895Y-101063076D02*
X89244514Y-101158314D01*
X89244514Y-101158314D02*
X89292133Y-101348790D01*
X89292133Y-101348790D02*
X89292133Y-101491647D01*
X89292133Y-101491647D02*
X89244514Y-101682123D01*
X89244514Y-101682123D02*
X89196895Y-101777361D01*
X89196895Y-101777361D02*
X89101657Y-101872600D01*
X89101657Y-101872600D02*
X88958800Y-101920219D01*
X88958800Y-101920219D02*
X88720705Y-101920219D01*
X90244514Y-101920219D02*
X89673086Y-101920219D01*
X89958800Y-101920219D02*
X89958800Y-100920219D01*
X89958800Y-100920219D02*
X89863562Y-101063076D01*
X89863562Y-101063076D02*
X89768324Y-101158314D01*
X89768324Y-101158314D02*
X89673086Y-101205933D01*
X89277142Y-92294580D02*
X89229523Y-92342200D01*
X89229523Y-92342200D02*
X89086666Y-92389819D01*
X89086666Y-92389819D02*
X88991428Y-92389819D01*
X88991428Y-92389819D02*
X88848571Y-92342200D01*
X88848571Y-92342200D02*
X88753333Y-92246961D01*
X88753333Y-92246961D02*
X88705714Y-92151723D01*
X88705714Y-92151723D02*
X88658095Y-91961247D01*
X88658095Y-91961247D02*
X88658095Y-91818390D01*
X88658095Y-91818390D02*
X88705714Y-91627914D01*
X88705714Y-91627914D02*
X88753333Y-91532676D01*
X88753333Y-91532676D02*
X88848571Y-91437438D01*
X88848571Y-91437438D02*
X88991428Y-91389819D01*
X88991428Y-91389819D02*
X89086666Y-91389819D01*
X89086666Y-91389819D02*
X89229523Y-91437438D01*
X89229523Y-91437438D02*
X89277142Y-91485057D01*
X90229523Y-92389819D02*
X89658095Y-92389819D01*
X89943809Y-92389819D02*
X89943809Y-91389819D01*
X89943809Y-91389819D02*
X89848571Y-91532676D01*
X89848571Y-91532676D02*
X89753333Y-91627914D01*
X89753333Y-91627914D02*
X89658095Y-91675533D01*
X90610476Y-91485057D02*
X90658095Y-91437438D01*
X90658095Y-91437438D02*
X90753333Y-91389819D01*
X90753333Y-91389819D02*
X90991428Y-91389819D01*
X90991428Y-91389819D02*
X91086666Y-91437438D01*
X91086666Y-91437438D02*
X91134285Y-91485057D01*
X91134285Y-91485057D02*
X91181904Y-91580295D01*
X91181904Y-91580295D02*
X91181904Y-91675533D01*
X91181904Y-91675533D02*
X91134285Y-91818390D01*
X91134285Y-91818390D02*
X90562857Y-92389819D01*
X90562857Y-92389819D02*
X91181904Y-92389819D01*
X86809342Y-82960380D02*
X86761723Y-83008000D01*
X86761723Y-83008000D02*
X86618866Y-83055619D01*
X86618866Y-83055619D02*
X86523628Y-83055619D01*
X86523628Y-83055619D02*
X86380771Y-83008000D01*
X86380771Y-83008000D02*
X86285533Y-82912761D01*
X86285533Y-82912761D02*
X86237914Y-82817523D01*
X86237914Y-82817523D02*
X86190295Y-82627047D01*
X86190295Y-82627047D02*
X86190295Y-82484190D01*
X86190295Y-82484190D02*
X86237914Y-82293714D01*
X86237914Y-82293714D02*
X86285533Y-82198476D01*
X86285533Y-82198476D02*
X86380771Y-82103238D01*
X86380771Y-82103238D02*
X86523628Y-82055619D01*
X86523628Y-82055619D02*
X86618866Y-82055619D01*
X86618866Y-82055619D02*
X86761723Y-82103238D01*
X86761723Y-82103238D02*
X86809342Y-82150857D01*
X87761723Y-83055619D02*
X87190295Y-83055619D01*
X87476009Y-83055619D02*
X87476009Y-82055619D01*
X87476009Y-82055619D02*
X87380771Y-82198476D01*
X87380771Y-82198476D02*
X87285533Y-82293714D01*
X87285533Y-82293714D02*
X87190295Y-82341333D01*
X88714104Y-83055619D02*
X88142676Y-83055619D01*
X88428390Y-83055619D02*
X88428390Y-82055619D01*
X88428390Y-82055619D02*
X88333152Y-82198476D01*
X88333152Y-82198476D02*
X88237914Y-82293714D01*
X88237914Y-82293714D02*
X88142676Y-82341333D01*
X118320942Y-81410180D02*
X118273323Y-81457800D01*
X118273323Y-81457800D02*
X118130466Y-81505419D01*
X118130466Y-81505419D02*
X118035228Y-81505419D01*
X118035228Y-81505419D02*
X117892371Y-81457800D01*
X117892371Y-81457800D02*
X117797133Y-81362561D01*
X117797133Y-81362561D02*
X117749514Y-81267323D01*
X117749514Y-81267323D02*
X117701895Y-81076847D01*
X117701895Y-81076847D02*
X117701895Y-80933990D01*
X117701895Y-80933990D02*
X117749514Y-80743514D01*
X117749514Y-80743514D02*
X117797133Y-80648276D01*
X117797133Y-80648276D02*
X117892371Y-80553038D01*
X117892371Y-80553038D02*
X118035228Y-80505419D01*
X118035228Y-80505419D02*
X118130466Y-80505419D01*
X118130466Y-80505419D02*
X118273323Y-80553038D01*
X118273323Y-80553038D02*
X118320942Y-80600657D01*
X119273323Y-81505419D02*
X118701895Y-81505419D01*
X118987609Y-81505419D02*
X118987609Y-80505419D01*
X118987609Y-80505419D02*
X118892371Y-80648276D01*
X118892371Y-80648276D02*
X118797133Y-80743514D01*
X118797133Y-80743514D02*
X118701895Y-80791133D01*
X119892371Y-80505419D02*
X119987609Y-80505419D01*
X119987609Y-80505419D02*
X120082847Y-80553038D01*
X120082847Y-80553038D02*
X120130466Y-80600657D01*
X120130466Y-80600657D02*
X120178085Y-80695895D01*
X120178085Y-80695895D02*
X120225704Y-80886371D01*
X120225704Y-80886371D02*
X120225704Y-81124466D01*
X120225704Y-81124466D02*
X120178085Y-81314942D01*
X120178085Y-81314942D02*
X120130466Y-81410180D01*
X120130466Y-81410180D02*
X120082847Y-81457800D01*
X120082847Y-81457800D02*
X119987609Y-81505419D01*
X119987609Y-81505419D02*
X119892371Y-81505419D01*
X119892371Y-81505419D02*
X119797133Y-81457800D01*
X119797133Y-81457800D02*
X119749514Y-81410180D01*
X119749514Y-81410180D02*
X119701895Y-81314942D01*
X119701895Y-81314942D02*
X119654276Y-81124466D01*
X119654276Y-81124466D02*
X119654276Y-80886371D01*
X119654276Y-80886371D02*
X119701895Y-80695895D01*
X119701895Y-80695895D02*
X119749514Y-80600657D01*
X119749514Y-80600657D02*
X119797133Y-80553038D01*
X119797133Y-80553038D02*
X119892371Y-80505419D01*
X121699580Y-107984666D02*
X121747200Y-108032285D01*
X121747200Y-108032285D02*
X121794819Y-108175142D01*
X121794819Y-108175142D02*
X121794819Y-108270380D01*
X121794819Y-108270380D02*
X121747200Y-108413237D01*
X121747200Y-108413237D02*
X121651961Y-108508475D01*
X121651961Y-108508475D02*
X121556723Y-108556094D01*
X121556723Y-108556094D02*
X121366247Y-108603713D01*
X121366247Y-108603713D02*
X121223390Y-108603713D01*
X121223390Y-108603713D02*
X121032914Y-108556094D01*
X121032914Y-108556094D02*
X120937676Y-108508475D01*
X120937676Y-108508475D02*
X120842438Y-108413237D01*
X120842438Y-108413237D02*
X120794819Y-108270380D01*
X120794819Y-108270380D02*
X120794819Y-108175142D01*
X120794819Y-108175142D02*
X120842438Y-108032285D01*
X120842438Y-108032285D02*
X120890057Y-107984666D01*
X121794819Y-107508475D02*
X121794819Y-107317999D01*
X121794819Y-107317999D02*
X121747200Y-107222761D01*
X121747200Y-107222761D02*
X121699580Y-107175142D01*
X121699580Y-107175142D02*
X121556723Y-107079904D01*
X121556723Y-107079904D02*
X121366247Y-107032285D01*
X121366247Y-107032285D02*
X120985295Y-107032285D01*
X120985295Y-107032285D02*
X120890057Y-107079904D01*
X120890057Y-107079904D02*
X120842438Y-107127523D01*
X120842438Y-107127523D02*
X120794819Y-107222761D01*
X120794819Y-107222761D02*
X120794819Y-107413237D01*
X120794819Y-107413237D02*
X120842438Y-107508475D01*
X120842438Y-107508475D02*
X120890057Y-107556094D01*
X120890057Y-107556094D02*
X120985295Y-107603713D01*
X120985295Y-107603713D02*
X121223390Y-107603713D01*
X121223390Y-107603713D02*
X121318628Y-107556094D01*
X121318628Y-107556094D02*
X121366247Y-107508475D01*
X121366247Y-107508475D02*
X121413866Y-107413237D01*
X121413866Y-107413237D02*
X121413866Y-107222761D01*
X121413866Y-107222761D02*
X121366247Y-107127523D01*
X121366247Y-107127523D02*
X121318628Y-107079904D01*
X121318628Y-107079904D02*
X121223390Y-107032285D01*
X124019580Y-104936666D02*
X124067200Y-104984285D01*
X124067200Y-104984285D02*
X124114819Y-105127142D01*
X124114819Y-105127142D02*
X124114819Y-105222380D01*
X124114819Y-105222380D02*
X124067200Y-105365237D01*
X124067200Y-105365237D02*
X123971961Y-105460475D01*
X123971961Y-105460475D02*
X123876723Y-105508094D01*
X123876723Y-105508094D02*
X123686247Y-105555713D01*
X123686247Y-105555713D02*
X123543390Y-105555713D01*
X123543390Y-105555713D02*
X123352914Y-105508094D01*
X123352914Y-105508094D02*
X123257676Y-105460475D01*
X123257676Y-105460475D02*
X123162438Y-105365237D01*
X123162438Y-105365237D02*
X123114819Y-105222380D01*
X123114819Y-105222380D02*
X123114819Y-105127142D01*
X123114819Y-105127142D02*
X123162438Y-104984285D01*
X123162438Y-104984285D02*
X123210057Y-104936666D01*
X123543390Y-104365237D02*
X123495771Y-104460475D01*
X123495771Y-104460475D02*
X123448152Y-104508094D01*
X123448152Y-104508094D02*
X123352914Y-104555713D01*
X123352914Y-104555713D02*
X123305295Y-104555713D01*
X123305295Y-104555713D02*
X123210057Y-104508094D01*
X123210057Y-104508094D02*
X123162438Y-104460475D01*
X123162438Y-104460475D02*
X123114819Y-104365237D01*
X123114819Y-104365237D02*
X123114819Y-104174761D01*
X123114819Y-104174761D02*
X123162438Y-104079523D01*
X123162438Y-104079523D02*
X123210057Y-104031904D01*
X123210057Y-104031904D02*
X123305295Y-103984285D01*
X123305295Y-103984285D02*
X123352914Y-103984285D01*
X123352914Y-103984285D02*
X123448152Y-104031904D01*
X123448152Y-104031904D02*
X123495771Y-104079523D01*
X123495771Y-104079523D02*
X123543390Y-104174761D01*
X123543390Y-104174761D02*
X123543390Y-104365237D01*
X123543390Y-104365237D02*
X123591009Y-104460475D01*
X123591009Y-104460475D02*
X123638628Y-104508094D01*
X123638628Y-104508094D02*
X123733866Y-104555713D01*
X123733866Y-104555713D02*
X123924342Y-104555713D01*
X123924342Y-104555713D02*
X124019580Y-104508094D01*
X124019580Y-104508094D02*
X124067200Y-104460475D01*
X124067200Y-104460475D02*
X124114819Y-104365237D01*
X124114819Y-104365237D02*
X124114819Y-104174761D01*
X124114819Y-104174761D02*
X124067200Y-104079523D01*
X124067200Y-104079523D02*
X124019580Y-104031904D01*
X124019580Y-104031904D02*
X123924342Y-103984285D01*
X123924342Y-103984285D02*
X123733866Y-103984285D01*
X123733866Y-103984285D02*
X123638628Y-104031904D01*
X123638628Y-104031904D02*
X123591009Y-104079523D01*
X123591009Y-104079523D02*
X123543390Y-104174761D01*
X121699580Y-101510266D02*
X121747200Y-101557885D01*
X121747200Y-101557885D02*
X121794819Y-101700742D01*
X121794819Y-101700742D02*
X121794819Y-101795980D01*
X121794819Y-101795980D02*
X121747200Y-101938837D01*
X121747200Y-101938837D02*
X121651961Y-102034075D01*
X121651961Y-102034075D02*
X121556723Y-102081694D01*
X121556723Y-102081694D02*
X121366247Y-102129313D01*
X121366247Y-102129313D02*
X121223390Y-102129313D01*
X121223390Y-102129313D02*
X121032914Y-102081694D01*
X121032914Y-102081694D02*
X120937676Y-102034075D01*
X120937676Y-102034075D02*
X120842438Y-101938837D01*
X120842438Y-101938837D02*
X120794819Y-101795980D01*
X120794819Y-101795980D02*
X120794819Y-101700742D01*
X120794819Y-101700742D02*
X120842438Y-101557885D01*
X120842438Y-101557885D02*
X120890057Y-101510266D01*
X120794819Y-101176932D02*
X120794819Y-100510266D01*
X120794819Y-100510266D02*
X121794819Y-100938837D01*
X117660980Y-101459466D02*
X117708600Y-101507085D01*
X117708600Y-101507085D02*
X117756219Y-101649942D01*
X117756219Y-101649942D02*
X117756219Y-101745180D01*
X117756219Y-101745180D02*
X117708600Y-101888037D01*
X117708600Y-101888037D02*
X117613361Y-101983275D01*
X117613361Y-101983275D02*
X117518123Y-102030894D01*
X117518123Y-102030894D02*
X117327647Y-102078513D01*
X117327647Y-102078513D02*
X117184790Y-102078513D01*
X117184790Y-102078513D02*
X116994314Y-102030894D01*
X116994314Y-102030894D02*
X116899076Y-101983275D01*
X116899076Y-101983275D02*
X116803838Y-101888037D01*
X116803838Y-101888037D02*
X116756219Y-101745180D01*
X116756219Y-101745180D02*
X116756219Y-101649942D01*
X116756219Y-101649942D02*
X116803838Y-101507085D01*
X116803838Y-101507085D02*
X116851457Y-101459466D01*
X116756219Y-100602323D02*
X116756219Y-100792799D01*
X116756219Y-100792799D02*
X116803838Y-100888037D01*
X116803838Y-100888037D02*
X116851457Y-100935656D01*
X116851457Y-100935656D02*
X116994314Y-101030894D01*
X116994314Y-101030894D02*
X117184790Y-101078513D01*
X117184790Y-101078513D02*
X117565742Y-101078513D01*
X117565742Y-101078513D02*
X117660980Y-101030894D01*
X117660980Y-101030894D02*
X117708600Y-100983275D01*
X117708600Y-100983275D02*
X117756219Y-100888037D01*
X117756219Y-100888037D02*
X117756219Y-100697561D01*
X117756219Y-100697561D02*
X117708600Y-100602323D01*
X117708600Y-100602323D02*
X117660980Y-100554704D01*
X117660980Y-100554704D02*
X117565742Y-100507085D01*
X117565742Y-100507085D02*
X117327647Y-100507085D01*
X117327647Y-100507085D02*
X117232409Y-100554704D01*
X117232409Y-100554704D02*
X117184790Y-100602323D01*
X117184790Y-100602323D02*
X117137171Y-100697561D01*
X117137171Y-100697561D02*
X117137171Y-100888037D01*
X117137171Y-100888037D02*
X117184790Y-100983275D01*
X117184790Y-100983275D02*
X117232409Y-101030894D01*
X117232409Y-101030894D02*
X117327647Y-101078513D01*
X115377933Y-108106380D02*
X115330314Y-108154000D01*
X115330314Y-108154000D02*
X115187457Y-108201619D01*
X115187457Y-108201619D02*
X115092219Y-108201619D01*
X115092219Y-108201619D02*
X114949362Y-108154000D01*
X114949362Y-108154000D02*
X114854124Y-108058761D01*
X114854124Y-108058761D02*
X114806505Y-107963523D01*
X114806505Y-107963523D02*
X114758886Y-107773047D01*
X114758886Y-107773047D02*
X114758886Y-107630190D01*
X114758886Y-107630190D02*
X114806505Y-107439714D01*
X114806505Y-107439714D02*
X114854124Y-107344476D01*
X114854124Y-107344476D02*
X114949362Y-107249238D01*
X114949362Y-107249238D02*
X115092219Y-107201619D01*
X115092219Y-107201619D02*
X115187457Y-107201619D01*
X115187457Y-107201619D02*
X115330314Y-107249238D01*
X115330314Y-107249238D02*
X115377933Y-107296857D01*
X116282695Y-107201619D02*
X115806505Y-107201619D01*
X115806505Y-107201619D02*
X115758886Y-107677809D01*
X115758886Y-107677809D02*
X115806505Y-107630190D01*
X115806505Y-107630190D02*
X115901743Y-107582571D01*
X115901743Y-107582571D02*
X116139838Y-107582571D01*
X116139838Y-107582571D02*
X116235076Y-107630190D01*
X116235076Y-107630190D02*
X116282695Y-107677809D01*
X116282695Y-107677809D02*
X116330314Y-107773047D01*
X116330314Y-107773047D02*
X116330314Y-108011142D01*
X116330314Y-108011142D02*
X116282695Y-108106380D01*
X116282695Y-108106380D02*
X116235076Y-108154000D01*
X116235076Y-108154000D02*
X116139838Y-108201619D01*
X116139838Y-108201619D02*
X115901743Y-108201619D01*
X115901743Y-108201619D02*
X115806505Y-108154000D01*
X115806505Y-108154000D02*
X115758886Y-108106380D01*
X115200133Y-105439380D02*
X115152514Y-105487000D01*
X115152514Y-105487000D02*
X115009657Y-105534619D01*
X115009657Y-105534619D02*
X114914419Y-105534619D01*
X114914419Y-105534619D02*
X114771562Y-105487000D01*
X114771562Y-105487000D02*
X114676324Y-105391761D01*
X114676324Y-105391761D02*
X114628705Y-105296523D01*
X114628705Y-105296523D02*
X114581086Y-105106047D01*
X114581086Y-105106047D02*
X114581086Y-104963190D01*
X114581086Y-104963190D02*
X114628705Y-104772714D01*
X114628705Y-104772714D02*
X114676324Y-104677476D01*
X114676324Y-104677476D02*
X114771562Y-104582238D01*
X114771562Y-104582238D02*
X114914419Y-104534619D01*
X114914419Y-104534619D02*
X115009657Y-104534619D01*
X115009657Y-104534619D02*
X115152514Y-104582238D01*
X115152514Y-104582238D02*
X115200133Y-104629857D01*
X116057276Y-104867952D02*
X116057276Y-105534619D01*
X115819181Y-104487000D02*
X115581086Y-105201285D01*
X115581086Y-105201285D02*
X116200133Y-105201285D01*
X113307533Y-97862580D02*
X113259914Y-97910200D01*
X113259914Y-97910200D02*
X113117057Y-97957819D01*
X113117057Y-97957819D02*
X113021819Y-97957819D01*
X113021819Y-97957819D02*
X112878962Y-97910200D01*
X112878962Y-97910200D02*
X112783724Y-97814961D01*
X112783724Y-97814961D02*
X112736105Y-97719723D01*
X112736105Y-97719723D02*
X112688486Y-97529247D01*
X112688486Y-97529247D02*
X112688486Y-97386390D01*
X112688486Y-97386390D02*
X112736105Y-97195914D01*
X112736105Y-97195914D02*
X112783724Y-97100676D01*
X112783724Y-97100676D02*
X112878962Y-97005438D01*
X112878962Y-97005438D02*
X113021819Y-96957819D01*
X113021819Y-96957819D02*
X113117057Y-96957819D01*
X113117057Y-96957819D02*
X113259914Y-97005438D01*
X113259914Y-97005438D02*
X113307533Y-97053057D01*
X113640867Y-96957819D02*
X114259914Y-96957819D01*
X114259914Y-96957819D02*
X113926581Y-97338771D01*
X113926581Y-97338771D02*
X114069438Y-97338771D01*
X114069438Y-97338771D02*
X114164676Y-97386390D01*
X114164676Y-97386390D02*
X114212295Y-97434009D01*
X114212295Y-97434009D02*
X114259914Y-97529247D01*
X114259914Y-97529247D02*
X114259914Y-97767342D01*
X114259914Y-97767342D02*
X114212295Y-97862580D01*
X114212295Y-97862580D02*
X114164676Y-97910200D01*
X114164676Y-97910200D02*
X114069438Y-97957819D01*
X114069438Y-97957819D02*
X113783724Y-97957819D01*
X113783724Y-97957819D02*
X113688486Y-97910200D01*
X113688486Y-97910200D02*
X113640867Y-97862580D01*
X113307533Y-93595380D02*
X113259914Y-93643000D01*
X113259914Y-93643000D02*
X113117057Y-93690619D01*
X113117057Y-93690619D02*
X113021819Y-93690619D01*
X113021819Y-93690619D02*
X112878962Y-93643000D01*
X112878962Y-93643000D02*
X112783724Y-93547761D01*
X112783724Y-93547761D02*
X112736105Y-93452523D01*
X112736105Y-93452523D02*
X112688486Y-93262047D01*
X112688486Y-93262047D02*
X112688486Y-93119190D01*
X112688486Y-93119190D02*
X112736105Y-92928714D01*
X112736105Y-92928714D02*
X112783724Y-92833476D01*
X112783724Y-92833476D02*
X112878962Y-92738238D01*
X112878962Y-92738238D02*
X113021819Y-92690619D01*
X113021819Y-92690619D02*
X113117057Y-92690619D01*
X113117057Y-92690619D02*
X113259914Y-92738238D01*
X113259914Y-92738238D02*
X113307533Y-92785857D01*
X113688486Y-92785857D02*
X113736105Y-92738238D01*
X113736105Y-92738238D02*
X113831343Y-92690619D01*
X113831343Y-92690619D02*
X114069438Y-92690619D01*
X114069438Y-92690619D02*
X114164676Y-92738238D01*
X114164676Y-92738238D02*
X114212295Y-92785857D01*
X114212295Y-92785857D02*
X114259914Y-92881095D01*
X114259914Y-92881095D02*
X114259914Y-92976333D01*
X114259914Y-92976333D02*
X114212295Y-93119190D01*
X114212295Y-93119190D02*
X113640867Y-93690619D01*
X113640867Y-93690619D02*
X114259914Y-93690619D01*
X113671333Y-81562580D02*
X113623714Y-81610200D01*
X113623714Y-81610200D02*
X113480857Y-81657819D01*
X113480857Y-81657819D02*
X113385619Y-81657819D01*
X113385619Y-81657819D02*
X113242762Y-81610200D01*
X113242762Y-81610200D02*
X113147524Y-81514961D01*
X113147524Y-81514961D02*
X113099905Y-81419723D01*
X113099905Y-81419723D02*
X113052286Y-81229247D01*
X113052286Y-81229247D02*
X113052286Y-81086390D01*
X113052286Y-81086390D02*
X113099905Y-80895914D01*
X113099905Y-80895914D02*
X113147524Y-80800676D01*
X113147524Y-80800676D02*
X113242762Y-80705438D01*
X113242762Y-80705438D02*
X113385619Y-80657819D01*
X113385619Y-80657819D02*
X113480857Y-80657819D01*
X113480857Y-80657819D02*
X113623714Y-80705438D01*
X113623714Y-80705438D02*
X113671333Y-80753057D01*
X114623714Y-81657819D02*
X114052286Y-81657819D01*
X114338000Y-81657819D02*
X114338000Y-80657819D01*
X114338000Y-80657819D02*
X114242762Y-80800676D01*
X114242762Y-80800676D02*
X114147524Y-80895914D01*
X114147524Y-80895914D02*
X114052286Y-80943533D01*
D11*
%TO.C,Y1*%
X87900000Y-88140000D02*
X91200000Y-88140000D01*
X91200000Y-88140000D02*
X91200000Y-84140000D01*
%TO.C,U2*%
X117612500Y-89260000D02*
X118412500Y-89260000D01*
X117612500Y-89260000D02*
X116812500Y-89260000D01*
X117612500Y-86140000D02*
X118412500Y-86140000D01*
X117612500Y-86140000D02*
X116812500Y-86140000D01*
X119152500Y-89540000D02*
X118672500Y-89540000D01*
X118912500Y-89210000D01*
X119152500Y-89540000D01*
G36*
X119152500Y-89540000D02*
G01*
X118672500Y-89540000D01*
X118912500Y-89210000D01*
X119152500Y-89540000D01*
G37*
%TO.C,U1*%
X97890000Y-83890000D02*
X97890000Y-84840000D01*
X97890000Y-94110000D02*
X97890000Y-93160000D01*
X98840000Y-83890000D02*
X97890000Y-83890000D01*
X98840000Y-94110000D02*
X97890000Y-94110000D01*
X107160000Y-83890000D02*
X108110000Y-83890000D01*
X107160000Y-94110000D02*
X108110000Y-94110000D01*
X108110000Y-83890000D02*
X108110000Y-84840000D01*
X108110000Y-94110000D02*
X108110000Y-93160000D01*
X97275000Y-84840000D02*
X96935000Y-84370000D01*
X97615000Y-84370000D01*
X97275000Y-84840000D01*
G36*
X97275000Y-84840000D02*
G01*
X96935000Y-84370000D01*
X97615000Y-84370000D01*
X97275000Y-84840000D01*
G37*
%TO.C,SW1*%
X93050000Y-74470000D02*
X93050000Y-73680000D01*
X92450000Y-72670000D02*
X86750000Y-72670000D01*
X91200000Y-75520000D02*
X89500000Y-75520000D01*
X91000000Y-72670000D02*
X91000000Y-71380000D01*
X91000000Y-71380000D02*
X90800000Y-71170000D01*
X90800000Y-71170000D02*
X89900000Y-71170000D01*
X89700000Y-71380000D02*
X89900000Y-71170000D01*
X89700000Y-71380000D02*
X89700000Y-72670000D01*
X88200000Y-75520000D02*
X88000000Y-75520000D01*
X86150000Y-73680000D02*
X86150000Y-74470000D01*
%TO.C,R6*%
X96718658Y-80405500D02*
X96244142Y-80405500D01*
X96718658Y-79360500D02*
X96244142Y-79360500D01*
%TO.C,R5*%
X108852500Y-76762258D02*
X108852500Y-76287742D01*
X109897500Y-76762258D02*
X109897500Y-76287742D01*
%TO.C,R4*%
X123477500Y-74787258D02*
X123477500Y-74312742D01*
X124522500Y-74787258D02*
X124522500Y-74312742D01*
%TO.C,R3*%
X89759158Y-108142300D02*
X89284642Y-108142300D01*
X89759158Y-107097300D02*
X89284642Y-107097300D01*
%TO.C,R2*%
X89336342Y-97597700D02*
X89810858Y-97597700D01*
X89336342Y-98642700D02*
X89810858Y-98642700D01*
%TO.C,R1*%
X89937858Y-80430900D02*
X89463342Y-80430900D01*
X89937858Y-79385900D02*
X89463342Y-79385900D01*
%TO.C,J5*%
X130040000Y-94560000D02*
X134400000Y-94560000D01*
X130040000Y-94560000D02*
X130040000Y-92060000D01*
X130040000Y-92060000D02*
X129840000Y-92060000D01*
X129840000Y-91400000D02*
X129840000Y-92060000D01*
X130040000Y-88540000D02*
X130040000Y-86040000D01*
X130040000Y-86040000D02*
X134400000Y-86040000D01*
%TO.C,J4*%
X101515000Y-103140000D02*
X101515000Y-108860000D01*
X101515000Y-108860000D02*
X105000000Y-108860000D01*
X102585000Y-103140000D02*
X101515000Y-103140000D01*
X102585000Y-103440000D02*
X102585000Y-103140000D01*
X102875000Y-102850000D02*
X102375000Y-102850000D01*
X102875000Y-103150000D02*
X102875000Y-102850000D01*
X105000000Y-103440000D02*
X102585000Y-103440000D01*
X105000000Y-103440000D02*
X107415000Y-103440000D01*
X107415000Y-103140000D02*
X108485000Y-103140000D01*
X107415000Y-103440000D02*
X107415000Y-103140000D01*
X108485000Y-103140000D02*
X108485000Y-108860000D01*
X108485000Y-108860000D02*
X105000000Y-108860000D01*
%TO.C,J3*%
X105485000Y-76860000D02*
X105485000Y-71140000D01*
X105485000Y-71140000D02*
X102000000Y-71140000D01*
X104415000Y-76860000D02*
X105485000Y-76860000D01*
X104415000Y-76560000D02*
X104415000Y-76860000D01*
X104125000Y-77150000D02*
X104625000Y-77150000D01*
X104125000Y-76850000D02*
X104125000Y-77150000D01*
X102000000Y-76560000D02*
X104415000Y-76560000D01*
X102000000Y-76560000D02*
X99585000Y-76560000D01*
X99585000Y-76860000D02*
X98515000Y-76860000D01*
X99585000Y-76560000D02*
X99585000Y-76860000D01*
X98515000Y-76860000D02*
X98515000Y-71140000D01*
X98515000Y-71140000D02*
X102000000Y-71140000D01*
%TO.C,J2*%
X120375000Y-72780000D02*
X113905000Y-72780000D01*
X120375000Y-72780000D02*
X120375000Y-73422470D01*
X113905000Y-72780000D02*
X113905000Y-73422470D01*
X120375000Y-74037530D02*
X120375000Y-74240000D01*
X113905000Y-74037530D02*
X113905000Y-74692470D01*
X120440000Y-75000000D02*
X120440000Y-75950000D01*
X113905000Y-75307530D02*
X113905000Y-75950000D01*
X119045000Y-75760000D02*
X119045000Y-75950000D01*
X120440000Y-75950000D02*
X119680000Y-75950000D01*
X119045000Y-75950000D02*
X113905000Y-75950000D01*
%TO.C,J1*%
X72440000Y-83200000D02*
X71800000Y-83200000D01*
X71800000Y-83200000D02*
X71800000Y-83600000D01*
X81160000Y-83440000D02*
X72040000Y-83440000D01*
X81160000Y-83440000D02*
X81160000Y-98560000D01*
X73600000Y-83440000D02*
X73600000Y-98560000D01*
X72500000Y-83440000D02*
X72500000Y-98560000D01*
X72040000Y-83440000D02*
X72040000Y-98560000D01*
X75819000Y-84452000D02*
X75712000Y-84346000D01*
X75553000Y-84718000D02*
X75446000Y-84612000D01*
X78754000Y-87388000D02*
X78647000Y-87281000D01*
X78488000Y-87654000D02*
X78381000Y-87547000D01*
X76108000Y-89742000D02*
X75712000Y-89347000D01*
X75826000Y-89993000D02*
X75446000Y-89613000D01*
X78754000Y-92388000D02*
X78374000Y-92008000D01*
X78488000Y-92654000D02*
X78092000Y-92259000D01*
X76108000Y-94742000D02*
X75712000Y-94347000D01*
X75826000Y-94993000D02*
X75446000Y-94613000D01*
X78754000Y-97388000D02*
X78374000Y-97008000D01*
X78488000Y-97654000D02*
X78092000Y-97259000D01*
X81160000Y-98560000D02*
X72040000Y-98560000D01*
X79280000Y-86000000D02*
G75*
G02*
X74920000Y-86000000I-2180000J0D01*
G01*
X74920000Y-86000000D02*
G75*
G02*
X79280000Y-86000000I2180000J0D01*
G01*
X79280000Y-91000000D02*
G75*
G02*
X74920000Y-91000000I-2180000J0D01*
G01*
X74920000Y-91000000D02*
G75*
G02*
X79280000Y-91000000I2180000J0D01*
G01*
X79280000Y-96000000D02*
G75*
G02*
X74920000Y-96000000I-2180000J0D01*
G01*
X74920000Y-96000000D02*
G75*
G02*
X79280000Y-96000000I2180000J0D01*
G01*
%TO.C,D1*%
X87973800Y-102160400D02*
X87973800Y-103630400D01*
X87973800Y-103630400D02*
X90258800Y-103630400D01*
X90258800Y-102160400D02*
X87973800Y-102160400D01*
%TO.C,C12*%
X90027836Y-91135000D02*
X89812164Y-91135000D01*
X90027836Y-90415000D02*
X89812164Y-90415000D01*
%TO.C,C11*%
X89836164Y-82215400D02*
X90051836Y-82215400D01*
X89836164Y-82935400D02*
X90051836Y-82935400D01*
%TO.C,C10*%
X119040580Y-79935000D02*
X118759420Y-79935000D01*
X119040580Y-78915000D02*
X118759420Y-78915000D01*
%TO.C,C9*%
X122140000Y-107925836D02*
X122140000Y-107710164D01*
X122860000Y-107925836D02*
X122860000Y-107710164D01*
%TO.C,C8*%
X122860000Y-104662164D02*
X122860000Y-104877836D01*
X122140000Y-104662164D02*
X122140000Y-104877836D01*
%TO.C,C7*%
X122140000Y-101451436D02*
X122140000Y-101235764D01*
X122860000Y-101451436D02*
X122860000Y-101235764D01*
%TO.C,C6*%
X118101400Y-101400636D02*
X118101400Y-101184964D01*
X118821400Y-101400636D02*
X118821400Y-101184964D01*
%TO.C,C5*%
X113023764Y-107361400D02*
X113239436Y-107361400D01*
X113023764Y-108081400D02*
X113239436Y-108081400D01*
%TO.C,C4*%
X113051764Y-104719800D02*
X113267436Y-104719800D01*
X113051764Y-105439800D02*
X113267436Y-105439800D01*
%TO.C,C3*%
X113333620Y-98423000D02*
X113614780Y-98423000D01*
X113333620Y-99443000D02*
X113614780Y-99443000D01*
%TO.C,C2*%
X113333620Y-94155800D02*
X113614780Y-94155800D01*
X113333620Y-95175800D02*
X113614780Y-95175800D01*
%TO.C,C1*%
X113684420Y-78915000D02*
X113965580Y-78915000D01*
X113684420Y-79935000D02*
X113965580Y-79935000D01*
%TD*%
M02*
