%TF.GenerationSoftware,KiCad,Pcbnew,8.0.4*%
%TF.CreationDate,2024-07-31T13:10:52-04:00*%
%TF.ProjectId,STM32F405RGT6,53544d33-3246-4343-9035-524754362e6b,rev?*%
%TF.SameCoordinates,Original*%
%TF.FileFunction,Soldermask,Top*%
%TF.FilePolarity,Negative*%
%FSLAX46Y46*%
G04 Gerber Fmt 4.6, Leading zero omitted, Abs format (unit mm)*
G04 Created by KiCad (PCBNEW 8.0.4) date 2024-07-31 13:10:52*
%MOMM*%
%LPD*%
G01*
G04 APERTURE LIST*
G04 Aperture macros list*
%AMRoundRect*
0 Rectangle with rounded corners*
0 $1 Rounding radius*
0 $2 $3 $4 $5 $6 $7 $8 $9 X,Y pos of 4 corners*
0 Add a 4 corners polygon primitive as box body*
4,1,4,$2,$3,$4,$5,$6,$7,$8,$9,$2,$3,0*
0 Add four circle primitives for the rounded corners*
1,1,$1+$1,$2,$3*
1,1,$1+$1,$4,$5*
1,1,$1+$1,$6,$7*
1,1,$1+$1,$8,$9*
0 Add four rect primitives between the rounded corners*
20,1,$1+$1,$2,$3,$4,$5,0*
20,1,$1+$1,$4,$5,$6,$7,0*
20,1,$1+$1,$6,$7,$8,$9,0*
20,1,$1+$1,$8,$9,$2,$3,0*%
G04 Aperture macros list end*
%ADD10R,1.200000X1.400000*%
%ADD11RoundRect,0.150000X0.512500X0.150000X-0.512500X0.150000X-0.512500X-0.150000X0.512500X-0.150000X0*%
%ADD12RoundRect,0.075000X-0.700000X-0.075000X0.700000X-0.075000X0.700000X0.075000X-0.700000X0.075000X0*%
%ADD13RoundRect,0.075000X-0.075000X-0.700000X0.075000X-0.700000X0.075000X0.700000X-0.075000X0.700000X0*%
%ADD14R,1.000000X0.800000*%
%ADD15C,0.900000*%
%ADD16R,0.700000X1.500000*%
%ADD17RoundRect,0.200000X0.200000X0.275000X-0.200000X0.275000X-0.200000X-0.275000X0.200000X-0.275000X0*%
%ADD18RoundRect,0.200000X0.275000X-0.200000X0.275000X0.200000X-0.275000X0.200000X-0.275000X-0.200000X0*%
%ADD19RoundRect,0.200000X-0.200000X-0.275000X0.200000X-0.275000X0.200000X0.275000X-0.200000X0.275000X0*%
%ADD20RoundRect,0.147500X0.147500X0.172500X-0.147500X0.172500X-0.147500X-0.172500X0.147500X-0.172500X0*%
%ADD21RoundRect,0.100000X0.575000X-0.100000X0.575000X0.100000X-0.575000X0.100000X-0.575000X-0.100000X0*%
%ADD22O,1.600000X0.900000*%
%ADD23RoundRect,0.250000X0.450000X-0.550000X0.450000X0.550000X-0.450000X0.550000X-0.450000X-0.550000X0*%
%ADD24RoundRect,0.250000X0.700000X-0.700000X0.700000X0.700000X-0.700000X0.700000X-0.700000X-0.700000X0*%
%ADD25RoundRect,0.200000X-0.200000X-0.450000X0.200000X-0.450000X0.200000X0.450000X-0.200000X0.450000X0*%
%ADD26O,0.800000X1.300000*%
%ADD27RoundRect,0.200000X0.200000X0.450000X-0.200000X0.450000X-0.200000X-0.450000X0.200000X-0.450000X0*%
%ADD28R,1.000000X1.000000*%
%ADD29O,1.000000X1.000000*%
%ADD30R,2.600000X2.600000*%
%ADD31C,2.600000*%
%ADD32C,8.600000*%
%ADD33RoundRect,0.218750X-0.218750X-0.256250X0.218750X-0.256250X0.218750X0.256250X-0.218750X0.256250X0*%
%ADD34RoundRect,0.140000X0.140000X0.170000X-0.140000X0.170000X-0.140000X-0.170000X0.140000X-0.170000X0*%
%ADD35RoundRect,0.140000X-0.140000X-0.170000X0.140000X-0.170000X0.140000X0.170000X-0.140000X0.170000X0*%
%ADD36RoundRect,0.225000X0.225000X0.250000X-0.225000X0.250000X-0.225000X-0.250000X0.225000X-0.250000X0*%
%ADD37RoundRect,0.140000X0.170000X-0.140000X0.170000X0.140000X-0.170000X0.140000X-0.170000X-0.140000X0*%
%ADD38RoundRect,0.140000X-0.170000X0.140000X-0.170000X-0.140000X0.170000X-0.140000X0.170000X0.140000X0*%
%ADD39RoundRect,0.225000X-0.225000X-0.250000X0.225000X-0.250000X0.225000X0.250000X-0.225000X0.250000X0*%
G04 APERTURE END LIST*
D10*
%TO.C,Y1*%
X90400000Y-87240000D03*
X90400000Y-85040000D03*
X88700000Y-85040000D03*
X88700000Y-87240000D03*
%TD*%
D11*
%TO.C,U2*%
X118750000Y-88650000D03*
X118750000Y-87700000D03*
X118750000Y-86750000D03*
X116475000Y-86750000D03*
X116475000Y-87700000D03*
X116475000Y-88650000D03*
%TD*%
D12*
%TO.C,U1*%
X97325000Y-85250000D03*
X97325000Y-85750000D03*
X97325000Y-86250000D03*
X97325000Y-86750000D03*
X97325000Y-87250000D03*
X97325000Y-87750000D03*
X97325000Y-88250000D03*
X97325000Y-88750000D03*
X97325000Y-89250000D03*
X97325000Y-89750000D03*
X97325000Y-90250000D03*
X97325000Y-90750000D03*
X97325000Y-91250000D03*
X97325000Y-91750000D03*
X97325000Y-92250000D03*
X97325000Y-92750000D03*
D13*
X99250000Y-94675000D03*
X99750000Y-94675000D03*
X100250000Y-94675000D03*
X100750000Y-94675000D03*
X101250000Y-94675000D03*
X101750000Y-94675000D03*
X102250000Y-94675000D03*
X102750000Y-94675000D03*
X103250000Y-94675000D03*
X103750000Y-94675000D03*
X104250000Y-94675000D03*
X104750000Y-94675000D03*
X105250000Y-94675000D03*
X105750000Y-94675000D03*
X106250000Y-94675000D03*
X106750000Y-94675000D03*
D12*
X108675000Y-92750000D03*
X108675000Y-92250000D03*
X108675000Y-91750000D03*
X108675000Y-91250000D03*
X108675000Y-90750000D03*
X108675000Y-90250000D03*
X108675000Y-89750000D03*
X108675000Y-89250000D03*
X108675000Y-88750000D03*
X108675000Y-88250000D03*
X108675000Y-87750000D03*
X108675000Y-87250000D03*
X108675000Y-86750000D03*
X108675000Y-86250000D03*
X108675000Y-85750000D03*
X108675000Y-85250000D03*
D13*
X106750000Y-83325000D03*
X106250000Y-83325000D03*
X105750000Y-83325000D03*
X105250000Y-83325000D03*
X104750000Y-83325000D03*
X104250000Y-83325000D03*
X103750000Y-83325000D03*
X103250000Y-83325000D03*
X102750000Y-83325000D03*
X102250000Y-83325000D03*
X101750000Y-83325000D03*
X101250000Y-83325000D03*
X100750000Y-83325000D03*
X100250000Y-83325000D03*
X99750000Y-83325000D03*
X99250000Y-83325000D03*
%TD*%
D14*
%TO.C,SW1*%
X93250000Y-75180000D03*
X93250000Y-72970000D03*
D15*
X91100000Y-74070000D03*
X88100000Y-74070000D03*
D14*
X85950000Y-75180000D03*
X85950000Y-72970000D03*
D16*
X91850000Y-75830000D03*
X88850000Y-75830000D03*
X87350000Y-75830000D03*
%TD*%
D17*
%TO.C,R6*%
X97306400Y-79883000D03*
X95656400Y-79883000D03*
%TD*%
D18*
%TO.C,R5*%
X109375000Y-77350000D03*
X109375000Y-75700000D03*
%TD*%
%TO.C,R4*%
X124000000Y-75375000D03*
X124000000Y-73725000D03*
%TD*%
D17*
%TO.C,R3*%
X90346900Y-107619800D03*
X88696900Y-107619800D03*
%TD*%
D19*
%TO.C,R2*%
X88748600Y-98120200D03*
X90398600Y-98120200D03*
%TD*%
D17*
%TO.C,R1*%
X90525600Y-79908400D03*
X88875600Y-79908400D03*
%TD*%
D20*
%TO.C,L1*%
X112676800Y-101701600D03*
X111706800Y-101701600D03*
%TD*%
D21*
%TO.C,J5*%
X130775000Y-91600000D03*
X130775000Y-90950000D03*
X130775000Y-90300000D03*
X130775000Y-89650000D03*
X130775000Y-89000000D03*
D22*
X133450000Y-93600000D03*
D23*
X131000000Y-93500000D03*
D24*
X133450000Y-91500000D03*
X133450000Y-89100000D03*
D23*
X131000000Y-87100000D03*
D22*
X133450000Y-87000000D03*
%TD*%
D25*
%TO.C,J4*%
X103125000Y-104300000D03*
D26*
X104375000Y-104300000D03*
X105625000Y-104300000D03*
X106875000Y-104300000D03*
%TD*%
D27*
%TO.C,J3*%
X103875000Y-75700000D03*
D26*
X102625000Y-75700000D03*
X101375000Y-75700000D03*
X100125000Y-75700000D03*
%TD*%
D28*
%TO.C,J2*%
X119680000Y-75000000D03*
D29*
X119680000Y-73730000D03*
X118410000Y-75000000D03*
X118410000Y-73730000D03*
X117140000Y-75000000D03*
X117140000Y-73730000D03*
X115870000Y-75000000D03*
X115870000Y-73730000D03*
X114600000Y-75000000D03*
X114600000Y-73730000D03*
%TD*%
D30*
%TO.C,J1*%
X77100000Y-86000000D03*
D31*
X77100000Y-91000000D03*
X77100000Y-96000000D03*
%TD*%
D15*
%TO.C,H4*%
X74494581Y-105530419D03*
X75439162Y-103250000D03*
X75439162Y-107810838D03*
X77719581Y-102305419D03*
D32*
X77719581Y-105530419D03*
D15*
X77719581Y-108755419D03*
X80000000Y-103250000D03*
X80000000Y-107810838D03*
X80944581Y-105530419D03*
%TD*%
%TO.C,H3*%
X127494581Y-105530419D03*
X128439162Y-103250000D03*
X128439162Y-107810838D03*
X130719581Y-102305419D03*
D32*
X130719581Y-105530419D03*
D15*
X130719581Y-108755419D03*
X133000000Y-103250000D03*
X133000000Y-107810838D03*
X133944581Y-105530419D03*
%TD*%
%TO.C,H2*%
X127525000Y-76500000D03*
X128469581Y-74219581D03*
X128469581Y-78780419D03*
X130750000Y-73275000D03*
D32*
X130750000Y-76500000D03*
D15*
X130750000Y-79725000D03*
X133030419Y-74219581D03*
X133030419Y-78780419D03*
X133975000Y-76500000D03*
%TD*%
%TO.C,H1*%
X74550000Y-76530419D03*
X75494581Y-74250000D03*
X75494581Y-78810838D03*
X77775000Y-73305419D03*
D32*
X77775000Y-76530419D03*
D15*
X77775000Y-79755419D03*
X80055419Y-74250000D03*
X80055419Y-78810838D03*
X81000000Y-76530419D03*
%TD*%
D33*
%TO.C,D1*%
X88671300Y-102895400D03*
X90246300Y-102895400D03*
%TD*%
D34*
%TO.C,C12*%
X90400000Y-90775000D03*
X89440000Y-90775000D03*
%TD*%
D35*
%TO.C,C11*%
X89464000Y-82575400D03*
X90424000Y-82575400D03*
%TD*%
D36*
%TO.C,C10*%
X119675000Y-79425000D03*
X118125000Y-79425000D03*
%TD*%
D37*
%TO.C,C9*%
X122500000Y-108298000D03*
X122500000Y-107338000D03*
%TD*%
D38*
%TO.C,C8*%
X122500000Y-104290000D03*
X122500000Y-105250000D03*
%TD*%
D37*
%TO.C,C7*%
X122500000Y-101823600D03*
X122500000Y-100863600D03*
%TD*%
%TO.C,C6*%
X118461400Y-101772800D03*
X118461400Y-100812800D03*
%TD*%
D35*
%TO.C,C5*%
X112651600Y-107721400D03*
X113611600Y-107721400D03*
%TD*%
%TO.C,C4*%
X112679600Y-105079800D03*
X113639600Y-105079800D03*
%TD*%
D39*
%TO.C,C3*%
X112699200Y-98933000D03*
X114249200Y-98933000D03*
%TD*%
%TO.C,C2*%
X112699200Y-94665800D03*
X114249200Y-94665800D03*
%TD*%
%TO.C,C1*%
X113050000Y-79425000D03*
X114600000Y-79425000D03*
%TD*%
M02*
