%TF.GenerationSoftware,KiCad,Pcbnew,(7.0.0)*%
%TF.CreationDate,2023-07-16T21:42:08+07:00*%
%TF.ProjectId,Attiny85_USB,41747469-6e79-4383-955f-5553422e6b69,rev?*%
%TF.SameCoordinates,Original*%
%TF.FileFunction,Legend,Top*%
%TF.FilePolarity,Positive*%
%FSLAX46Y46*%
G04 Gerber Fmt 4.6, Leading zero omitted, Abs format (unit mm)*
G04 Created by KiCad (PCBNEW (7.0.0)) date 2023-07-16 21:42:08*
%MOMM*%
%LPD*%
G01*
G04 APERTURE LIST*
%ADD10C,0.100000*%
%ADD11C,0.150000*%
%ADD12C,0.120000*%
G04 APERTURE END LIST*
D10*
%TO.C,U2*%
X55888095Y-112842380D02*
X55888095Y-113651904D01*
X55888095Y-113651904D02*
X55935714Y-113747142D01*
X55935714Y-113747142D02*
X55983333Y-113794761D01*
X55983333Y-113794761D02*
X56078571Y-113842380D01*
X56078571Y-113842380D02*
X56269047Y-113842380D01*
X56269047Y-113842380D02*
X56364285Y-113794761D01*
X56364285Y-113794761D02*
X56411904Y-113747142D01*
X56411904Y-113747142D02*
X56459523Y-113651904D01*
X56459523Y-113651904D02*
X56459523Y-112842380D01*
X56888095Y-112937619D02*
X56935714Y-112890000D01*
X56935714Y-112890000D02*
X57030952Y-112842380D01*
X57030952Y-112842380D02*
X57269047Y-112842380D01*
X57269047Y-112842380D02*
X57364285Y-112890000D01*
X57364285Y-112890000D02*
X57411904Y-112937619D01*
X57411904Y-112937619D02*
X57459523Y-113032857D01*
X57459523Y-113032857D02*
X57459523Y-113128095D01*
X57459523Y-113128095D02*
X57411904Y-113270952D01*
X57411904Y-113270952D02*
X56840476Y-113842380D01*
X56840476Y-113842380D02*
X57459523Y-113842380D01*
X60988095Y-112607380D02*
X60988095Y-113416904D01*
X60988095Y-113416904D02*
X61035714Y-113512142D01*
X61035714Y-113512142D02*
X61083333Y-113559761D01*
X61083333Y-113559761D02*
X61178571Y-113607380D01*
X61178571Y-113607380D02*
X61369047Y-113607380D01*
X61369047Y-113607380D02*
X61464285Y-113559761D01*
X61464285Y-113559761D02*
X61511904Y-113512142D01*
X61511904Y-113512142D02*
X61559523Y-113416904D01*
X61559523Y-113416904D02*
X61559523Y-112607380D01*
X61988095Y-113559761D02*
X62130952Y-113607380D01*
X62130952Y-113607380D02*
X62369047Y-113607380D01*
X62369047Y-113607380D02*
X62464285Y-113559761D01*
X62464285Y-113559761D02*
X62511904Y-113512142D01*
X62511904Y-113512142D02*
X62559523Y-113416904D01*
X62559523Y-113416904D02*
X62559523Y-113321666D01*
X62559523Y-113321666D02*
X62511904Y-113226428D01*
X62511904Y-113226428D02*
X62464285Y-113178809D01*
X62464285Y-113178809D02*
X62369047Y-113131190D01*
X62369047Y-113131190D02*
X62178571Y-113083571D01*
X62178571Y-113083571D02*
X62083333Y-113035952D01*
X62083333Y-113035952D02*
X62035714Y-112988333D01*
X62035714Y-112988333D02*
X61988095Y-112893095D01*
X61988095Y-112893095D02*
X61988095Y-112797857D01*
X61988095Y-112797857D02*
X62035714Y-112702619D01*
X62035714Y-112702619D02*
X62083333Y-112655000D01*
X62083333Y-112655000D02*
X62178571Y-112607380D01*
X62178571Y-112607380D02*
X62416666Y-112607380D01*
X62416666Y-112607380D02*
X62559523Y-112655000D01*
X63321428Y-113083571D02*
X63464285Y-113131190D01*
X63464285Y-113131190D02*
X63511904Y-113178809D01*
X63511904Y-113178809D02*
X63559523Y-113274047D01*
X63559523Y-113274047D02*
X63559523Y-113416904D01*
X63559523Y-113416904D02*
X63511904Y-113512142D01*
X63511904Y-113512142D02*
X63464285Y-113559761D01*
X63464285Y-113559761D02*
X63369047Y-113607380D01*
X63369047Y-113607380D02*
X62988095Y-113607380D01*
X62988095Y-113607380D02*
X62988095Y-112607380D01*
X62988095Y-112607380D02*
X63321428Y-112607380D01*
X63321428Y-112607380D02*
X63416666Y-112655000D01*
X63416666Y-112655000D02*
X63464285Y-112702619D01*
X63464285Y-112702619D02*
X63511904Y-112797857D01*
X63511904Y-112797857D02*
X63511904Y-112893095D01*
X63511904Y-112893095D02*
X63464285Y-112988333D01*
X63464285Y-112988333D02*
X63416666Y-113035952D01*
X63416666Y-113035952D02*
X63321428Y-113083571D01*
X63321428Y-113083571D02*
X62988095Y-113083571D01*
D11*
%TO.C,J2*%
X100826666Y-113177380D02*
X100826666Y-113891666D01*
X100826666Y-113891666D02*
X100779047Y-114034523D01*
X100779047Y-114034523D02*
X100683809Y-114129761D01*
X100683809Y-114129761D02*
X100540952Y-114177380D01*
X100540952Y-114177380D02*
X100445714Y-114177380D01*
X101255238Y-113272619D02*
X101302857Y-113225000D01*
X101302857Y-113225000D02*
X101398095Y-113177380D01*
X101398095Y-113177380D02*
X101636190Y-113177380D01*
X101636190Y-113177380D02*
X101731428Y-113225000D01*
X101731428Y-113225000D02*
X101779047Y-113272619D01*
X101779047Y-113272619D02*
X101826666Y-113367857D01*
X101826666Y-113367857D02*
X101826666Y-113463095D01*
X101826666Y-113463095D02*
X101779047Y-113605952D01*
X101779047Y-113605952D02*
X101207619Y-114177380D01*
X101207619Y-114177380D02*
X101826666Y-114177380D01*
%TO.C,C1*%
X85442142Y-117359166D02*
X85489761Y-117406785D01*
X85489761Y-117406785D02*
X85537380Y-117549642D01*
X85537380Y-117549642D02*
X85537380Y-117644880D01*
X85537380Y-117644880D02*
X85489761Y-117787737D01*
X85489761Y-117787737D02*
X85394523Y-117882975D01*
X85394523Y-117882975D02*
X85299285Y-117930594D01*
X85299285Y-117930594D02*
X85108809Y-117978213D01*
X85108809Y-117978213D02*
X84965952Y-117978213D01*
X84965952Y-117978213D02*
X84775476Y-117930594D01*
X84775476Y-117930594D02*
X84680238Y-117882975D01*
X84680238Y-117882975D02*
X84585000Y-117787737D01*
X84585000Y-117787737D02*
X84537380Y-117644880D01*
X84537380Y-117644880D02*
X84537380Y-117549642D01*
X84537380Y-117549642D02*
X84585000Y-117406785D01*
X84585000Y-117406785D02*
X84632619Y-117359166D01*
X85537380Y-116406785D02*
X85537380Y-116978213D01*
X85537380Y-116692499D02*
X84537380Y-116692499D01*
X84537380Y-116692499D02*
X84680238Y-116787737D01*
X84680238Y-116787737D02*
X84775476Y-116882975D01*
X84775476Y-116882975D02*
X84823095Y-116978213D01*
%TO.C,R4*%
X73363333Y-115887380D02*
X73030000Y-115411190D01*
X72791905Y-115887380D02*
X72791905Y-114887380D01*
X72791905Y-114887380D02*
X73172857Y-114887380D01*
X73172857Y-114887380D02*
X73268095Y-114935000D01*
X73268095Y-114935000D02*
X73315714Y-114982619D01*
X73315714Y-114982619D02*
X73363333Y-115077857D01*
X73363333Y-115077857D02*
X73363333Y-115220714D01*
X73363333Y-115220714D02*
X73315714Y-115315952D01*
X73315714Y-115315952D02*
X73268095Y-115363571D01*
X73268095Y-115363571D02*
X73172857Y-115411190D01*
X73172857Y-115411190D02*
X72791905Y-115411190D01*
X74220476Y-115220714D02*
X74220476Y-115887380D01*
X73982381Y-114839761D02*
X73744286Y-115554047D01*
X73744286Y-115554047D02*
X74363333Y-115554047D01*
%TO.C,J1*%
X84306666Y-109167380D02*
X84306666Y-109881666D01*
X84306666Y-109881666D02*
X84259047Y-110024523D01*
X84259047Y-110024523D02*
X84163809Y-110119761D01*
X84163809Y-110119761D02*
X84020952Y-110167380D01*
X84020952Y-110167380D02*
X83925714Y-110167380D01*
X85306666Y-110167380D02*
X84735238Y-110167380D01*
X85020952Y-110167380D02*
X85020952Y-109167380D01*
X85020952Y-109167380D02*
X84925714Y-109310238D01*
X84925714Y-109310238D02*
X84830476Y-109405476D01*
X84830476Y-109405476D02*
X84735238Y-109453095D01*
%TO.C,R1*%
X77337380Y-115266666D02*
X76861190Y-115599999D01*
X77337380Y-115838094D02*
X76337380Y-115838094D01*
X76337380Y-115838094D02*
X76337380Y-115457142D01*
X76337380Y-115457142D02*
X76385000Y-115361904D01*
X76385000Y-115361904D02*
X76432619Y-115314285D01*
X76432619Y-115314285D02*
X76527857Y-115266666D01*
X76527857Y-115266666D02*
X76670714Y-115266666D01*
X76670714Y-115266666D02*
X76765952Y-115314285D01*
X76765952Y-115314285D02*
X76813571Y-115361904D01*
X76813571Y-115361904D02*
X76861190Y-115457142D01*
X76861190Y-115457142D02*
X76861190Y-115838094D01*
X77337380Y-114314285D02*
X77337380Y-114885713D01*
X77337380Y-114599999D02*
X76337380Y-114599999D01*
X76337380Y-114599999D02*
X76480238Y-114695237D01*
X76480238Y-114695237D02*
X76575476Y-114790475D01*
X76575476Y-114790475D02*
X76623095Y-114885713D01*
%TO.C,U1*%
X95248095Y-108237380D02*
X95248095Y-109046904D01*
X95248095Y-109046904D02*
X95295714Y-109142142D01*
X95295714Y-109142142D02*
X95343333Y-109189761D01*
X95343333Y-109189761D02*
X95438571Y-109237380D01*
X95438571Y-109237380D02*
X95629047Y-109237380D01*
X95629047Y-109237380D02*
X95724285Y-109189761D01*
X95724285Y-109189761D02*
X95771904Y-109142142D01*
X95771904Y-109142142D02*
X95819523Y-109046904D01*
X95819523Y-109046904D02*
X95819523Y-108237380D01*
X96819523Y-109237380D02*
X96248095Y-109237380D01*
X96533809Y-109237380D02*
X96533809Y-108237380D01*
X96533809Y-108237380D02*
X96438571Y-108380238D01*
X96438571Y-108380238D02*
X96343333Y-108475476D01*
X96343333Y-108475476D02*
X96248095Y-108523095D01*
%TO.C,R2*%
X77527380Y-110986666D02*
X77051190Y-111319999D01*
X77527380Y-111558094D02*
X76527380Y-111558094D01*
X76527380Y-111558094D02*
X76527380Y-111177142D01*
X76527380Y-111177142D02*
X76575000Y-111081904D01*
X76575000Y-111081904D02*
X76622619Y-111034285D01*
X76622619Y-111034285D02*
X76717857Y-110986666D01*
X76717857Y-110986666D02*
X76860714Y-110986666D01*
X76860714Y-110986666D02*
X76955952Y-111034285D01*
X76955952Y-111034285D02*
X77003571Y-111081904D01*
X77003571Y-111081904D02*
X77051190Y-111177142D01*
X77051190Y-111177142D02*
X77051190Y-111558094D01*
X76622619Y-110605713D02*
X76575000Y-110558094D01*
X76575000Y-110558094D02*
X76527380Y-110462856D01*
X76527380Y-110462856D02*
X76527380Y-110224761D01*
X76527380Y-110224761D02*
X76575000Y-110129523D01*
X76575000Y-110129523D02*
X76622619Y-110081904D01*
X76622619Y-110081904D02*
X76717857Y-110034285D01*
X76717857Y-110034285D02*
X76813095Y-110034285D01*
X76813095Y-110034285D02*
X76955952Y-110081904D01*
X76955952Y-110081904D02*
X77527380Y-110653332D01*
X77527380Y-110653332D02*
X77527380Y-110034285D01*
%TO.C,D2*%
X71161905Y-119687380D02*
X71161905Y-118687380D01*
X71161905Y-118687380D02*
X71400000Y-118687380D01*
X71400000Y-118687380D02*
X71542857Y-118735000D01*
X71542857Y-118735000D02*
X71638095Y-118830238D01*
X71638095Y-118830238D02*
X71685714Y-118925476D01*
X71685714Y-118925476D02*
X71733333Y-119115952D01*
X71733333Y-119115952D02*
X71733333Y-119258809D01*
X71733333Y-119258809D02*
X71685714Y-119449285D01*
X71685714Y-119449285D02*
X71638095Y-119544523D01*
X71638095Y-119544523D02*
X71542857Y-119639761D01*
X71542857Y-119639761D02*
X71400000Y-119687380D01*
X71400000Y-119687380D02*
X71161905Y-119687380D01*
X72114286Y-118782619D02*
X72161905Y-118735000D01*
X72161905Y-118735000D02*
X72257143Y-118687380D01*
X72257143Y-118687380D02*
X72495238Y-118687380D01*
X72495238Y-118687380D02*
X72590476Y-118735000D01*
X72590476Y-118735000D02*
X72638095Y-118782619D01*
X72638095Y-118782619D02*
X72685714Y-118877857D01*
X72685714Y-118877857D02*
X72685714Y-118973095D01*
X72685714Y-118973095D02*
X72638095Y-119115952D01*
X72638095Y-119115952D02*
X72066667Y-119687380D01*
X72066667Y-119687380D02*
X72685714Y-119687380D01*
%TO.C,D1*%
X73434405Y-108997380D02*
X73434405Y-107997380D01*
X73434405Y-107997380D02*
X73672500Y-107997380D01*
X73672500Y-107997380D02*
X73815357Y-108045000D01*
X73815357Y-108045000D02*
X73910595Y-108140238D01*
X73910595Y-108140238D02*
X73958214Y-108235476D01*
X73958214Y-108235476D02*
X74005833Y-108425952D01*
X74005833Y-108425952D02*
X74005833Y-108568809D01*
X74005833Y-108568809D02*
X73958214Y-108759285D01*
X73958214Y-108759285D02*
X73910595Y-108854523D01*
X73910595Y-108854523D02*
X73815357Y-108949761D01*
X73815357Y-108949761D02*
X73672500Y-108997380D01*
X73672500Y-108997380D02*
X73434405Y-108997380D01*
X74958214Y-108997380D02*
X74386786Y-108997380D01*
X74672500Y-108997380D02*
X74672500Y-107997380D01*
X74672500Y-107997380D02*
X74577262Y-108140238D01*
X74577262Y-108140238D02*
X74482024Y-108235476D01*
X74482024Y-108235476D02*
X74386786Y-108283095D01*
%TO.C,R3*%
X90303333Y-119357380D02*
X89970000Y-118881190D01*
X89731905Y-119357380D02*
X89731905Y-118357380D01*
X89731905Y-118357380D02*
X90112857Y-118357380D01*
X90112857Y-118357380D02*
X90208095Y-118405000D01*
X90208095Y-118405000D02*
X90255714Y-118452619D01*
X90255714Y-118452619D02*
X90303333Y-118547857D01*
X90303333Y-118547857D02*
X90303333Y-118690714D01*
X90303333Y-118690714D02*
X90255714Y-118785952D01*
X90255714Y-118785952D02*
X90208095Y-118833571D01*
X90208095Y-118833571D02*
X90112857Y-118881190D01*
X90112857Y-118881190D02*
X89731905Y-118881190D01*
X90636667Y-118357380D02*
X91255714Y-118357380D01*
X91255714Y-118357380D02*
X90922381Y-118738333D01*
X90922381Y-118738333D02*
X91065238Y-118738333D01*
X91065238Y-118738333D02*
X91160476Y-118785952D01*
X91160476Y-118785952D02*
X91208095Y-118833571D01*
X91208095Y-118833571D02*
X91255714Y-118928809D01*
X91255714Y-118928809D02*
X91255714Y-119166904D01*
X91255714Y-119166904D02*
X91208095Y-119262142D01*
X91208095Y-119262142D02*
X91160476Y-119309761D01*
X91160476Y-119309761D02*
X91065238Y-119357380D01*
X91065238Y-119357380D02*
X90779524Y-119357380D01*
X90779524Y-119357380D02*
X90684286Y-119309761D01*
X90684286Y-119309761D02*
X90636667Y-119262142D01*
%TO.C,D3*%
X95271905Y-116287380D02*
X95271905Y-115287380D01*
X95271905Y-115287380D02*
X95510000Y-115287380D01*
X95510000Y-115287380D02*
X95652857Y-115335000D01*
X95652857Y-115335000D02*
X95748095Y-115430238D01*
X95748095Y-115430238D02*
X95795714Y-115525476D01*
X95795714Y-115525476D02*
X95843333Y-115715952D01*
X95843333Y-115715952D02*
X95843333Y-115858809D01*
X95843333Y-115858809D02*
X95795714Y-116049285D01*
X95795714Y-116049285D02*
X95748095Y-116144523D01*
X95748095Y-116144523D02*
X95652857Y-116239761D01*
X95652857Y-116239761D02*
X95510000Y-116287380D01*
X95510000Y-116287380D02*
X95271905Y-116287380D01*
X96176667Y-115287380D02*
X96795714Y-115287380D01*
X96795714Y-115287380D02*
X96462381Y-115668333D01*
X96462381Y-115668333D02*
X96605238Y-115668333D01*
X96605238Y-115668333D02*
X96700476Y-115715952D01*
X96700476Y-115715952D02*
X96748095Y-115763571D01*
X96748095Y-115763571D02*
X96795714Y-115858809D01*
X96795714Y-115858809D02*
X96795714Y-116096904D01*
X96795714Y-116096904D02*
X96748095Y-116192142D01*
X96748095Y-116192142D02*
X96700476Y-116239761D01*
X96700476Y-116239761D02*
X96605238Y-116287380D01*
X96605238Y-116287380D02*
X96319524Y-116287380D01*
X96319524Y-116287380D02*
X96224286Y-116239761D01*
X96224286Y-116239761D02*
X96176667Y-116192142D01*
D10*
%TO.C,U2*%
X60800000Y-109275000D02*
X65800000Y-109275000D01*
X65800000Y-109275000D02*
X65800000Y-118725000D01*
X65800000Y-118725000D02*
X60800000Y-118725000D01*
X60800000Y-118725000D02*
X60800000Y-109275000D01*
D12*
%TO.C,J2*%
X100090000Y-119150000D02*
X98760000Y-119150000D01*
X100090000Y-117820000D02*
X100090000Y-119150000D01*
X100090000Y-116550000D02*
X100090000Y-108870000D01*
X100090000Y-116550000D02*
X97430000Y-116550000D01*
X100090000Y-108870000D02*
X97430000Y-108870000D01*
X97430000Y-116550000D02*
X97430000Y-108870000D01*
%TO.C,C1*%
X86110000Y-117903752D02*
X86110000Y-116481248D01*
X87930000Y-117903752D02*
X87930000Y-116481248D01*
%TO.C,R4*%
X73757064Y-114605000D02*
X73302936Y-114605000D01*
X73757064Y-113135000D02*
X73302936Y-113135000D01*
%TO.C,J1*%
X81140000Y-108800000D02*
X82470000Y-108800000D01*
X81140000Y-110130000D02*
X81140000Y-108800000D01*
X81140000Y-111400000D02*
X81140000Y-119080000D01*
X81140000Y-111400000D02*
X83800000Y-111400000D01*
X81140000Y-119080000D02*
X83800000Y-119080000D01*
X83800000Y-111400000D02*
X83800000Y-119080000D01*
%TO.C,R1*%
X79295000Y-116362936D02*
X79295000Y-116817064D01*
X77825000Y-116362936D02*
X77825000Y-116817064D01*
D11*
%TO.C,U1*%
X87840000Y-108520000D02*
X87840000Y-108725000D01*
X87840000Y-108520000D02*
X93340000Y-108520000D01*
X87840000Y-108725000D02*
X86090000Y-108725000D01*
X87840000Y-114030000D02*
X87840000Y-113730000D01*
X87840000Y-114030000D02*
X93340000Y-114030000D01*
X93340000Y-108520000D02*
X93340000Y-108820000D01*
X93340000Y-114030000D02*
X93340000Y-113730000D01*
D12*
%TO.C,R2*%
X79295000Y-110412936D02*
X79295000Y-110867064D01*
X77825000Y-110412936D02*
X77825000Y-110867064D01*
%TO.C,D2*%
X71820000Y-116200000D02*
X71820000Y-118200000D01*
X71820000Y-116200000D02*
X75830000Y-116200000D01*
X71820000Y-118200000D02*
X75830000Y-118200000D01*
%TO.C,D1*%
X71812500Y-109630000D02*
X71812500Y-111630000D01*
X71812500Y-109630000D02*
X75822500Y-109630000D01*
X71812500Y-111630000D02*
X75822500Y-111630000D01*
%TO.C,R3*%
X93142936Y-118005000D02*
X93597064Y-118005000D01*
X93142936Y-119475000D02*
X93597064Y-119475000D01*
%TO.C,D3*%
X90422500Y-114775000D02*
X90422500Y-117045000D01*
X90422500Y-117045000D02*
X94482500Y-117045000D01*
X94482500Y-114775000D02*
X90422500Y-114775000D01*
%TD*%
M02*
