%TF.GenerationSoftware,KiCad,Pcbnew,(7.0.0)*%
%TF.CreationDate,2023-07-16T21:42:08+07:00*%
%TF.ProjectId,Attiny85_USB,41747469-6e79-4383-955f-5553422e6b69,rev?*%
%TF.SameCoordinates,Original*%
%TF.FileFunction,Copper,L2,Bot*%
%TF.FilePolarity,Positive*%
%FSLAX46Y46*%
G04 Gerber Fmt 4.6, Leading zero omitted, Abs format (unit mm)*
G04 Created by KiCad (PCBNEW (7.0.0)) date 2023-07-16 21:42:08*
%MOMM*%
%LPD*%
G01*
G04 APERTURE LIST*
%TA.AperFunction,ComponentPad*%
%ADD10R,1.700000X1.700000*%
%TD*%
%TA.AperFunction,ComponentPad*%
%ADD11O,1.700000X1.700000*%
%TD*%
%TA.AperFunction,ViaPad*%
%ADD12C,0.800000*%
%TD*%
G04 APERTURE END LIST*
D10*
%TO.P,J2,1,Pin_1*%
%TO.N,Net-(J2-Pin_1)*%
X98759999Y-117819999D03*
D11*
%TO.P,J2,2,Pin_2*%
%TO.N,Net-(J2-Pin_2)*%
X98759999Y-115279999D03*
%TO.P,J2,3,Pin_3*%
%TO.N,Net-(J2-Pin_3)*%
X98759999Y-112739999D03*
%TO.P,J2,4,Pin_4*%
%TO.N,+5V*%
X98759999Y-110199999D03*
%TD*%
D10*
%TO.P,J1,1,Pin_1*%
%TO.N,Net-(J1-Pin_1)*%
X82469999Y-110129999D03*
D11*
%TO.P,J1,2,Pin_2*%
%TO.N,Net-(J1-Pin_2)*%
X82469999Y-112669999D03*
%TO.P,J1,3,Pin_3*%
%TO.N,Net-(J1-Pin_3)*%
X82469999Y-115209999D03*
%TO.P,J1,4,Pin_4*%
%TO.N,GND*%
X82469999Y-117749999D03*
%TD*%
D12*
%TO.N,GND*%
X75830000Y-116390000D03*
X91410000Y-116980000D03*
X86940000Y-113840000D03*
X87020000Y-114870000D03*
X75820000Y-109330000D03*
X61010000Y-110230000D03*
%TD*%
%TA.AperFunction,Conductor*%
%TO.N,GND*%
G36*
X107177500Y-107897113D02*
G01*
X107222887Y-107942500D01*
X107239500Y-108004500D01*
X107239500Y-119955500D01*
X107222887Y-120017500D01*
X107177500Y-120062887D01*
X107115500Y-120079500D01*
X53174500Y-120079500D01*
X53112500Y-120062887D01*
X53067113Y-120017500D01*
X53050500Y-119955500D01*
X53050500Y-117420000D01*
X67494341Y-117420000D01*
X67494813Y-117425395D01*
X67500134Y-117486219D01*
X67514937Y-117655408D01*
X67516336Y-117660630D01*
X67516337Y-117660634D01*
X67574694Y-117878430D01*
X67574697Y-117878438D01*
X67576097Y-117883663D01*
X67675965Y-118097829D01*
X67679072Y-118102266D01*
X67679073Y-118102268D01*
X67689969Y-118117829D01*
X67811505Y-118291401D01*
X67978599Y-118458495D01*
X68172171Y-118594035D01*
X68386337Y-118693903D01*
X68614592Y-118755063D01*
X68791034Y-118770500D01*
X68906258Y-118770500D01*
X68908966Y-118770500D01*
X69085408Y-118755063D01*
X69313663Y-118693903D01*
X69527829Y-118594035D01*
X69721401Y-118458495D01*
X69888495Y-118291401D01*
X70024035Y-118097830D01*
X70068464Y-118002551D01*
X81142688Y-118002551D01*
X81143056Y-118013780D01*
X81195168Y-118208263D01*
X81198856Y-118218397D01*
X81294113Y-118422676D01*
X81299501Y-118432008D01*
X81428784Y-118616643D01*
X81435721Y-118624909D01*
X81595090Y-118784278D01*
X81603356Y-118791215D01*
X81787991Y-118920498D01*
X81797323Y-118925886D01*
X82001602Y-119021143D01*
X82011736Y-119024831D01*
X82206219Y-119076943D01*
X82217448Y-119077311D01*
X82220000Y-119066369D01*
X82720000Y-119066369D01*
X82722551Y-119077311D01*
X82733780Y-119076943D01*
X82928263Y-119024831D01*
X82938397Y-119021143D01*
X83142676Y-118925886D01*
X83152008Y-118920498D01*
X83336643Y-118791215D01*
X83344909Y-118784278D01*
X83504278Y-118624909D01*
X83511215Y-118616643D01*
X83640498Y-118432008D01*
X83645886Y-118422676D01*
X83741143Y-118218397D01*
X83744831Y-118208263D01*
X83796943Y-118013780D01*
X83797311Y-118002551D01*
X83786369Y-118000000D01*
X82736326Y-118000000D01*
X82723450Y-118003450D01*
X82720000Y-118016326D01*
X82720000Y-119066369D01*
X82220000Y-119066369D01*
X82220000Y-118016326D01*
X82216549Y-118003450D01*
X82203674Y-118000000D01*
X81153631Y-118000000D01*
X81142688Y-118002551D01*
X70068464Y-118002551D01*
X70123903Y-117883663D01*
X70185063Y-117655408D01*
X70205659Y-117420000D01*
X70185063Y-117184592D01*
X70123903Y-116956337D01*
X70024035Y-116742171D01*
X69888495Y-116548599D01*
X69721401Y-116381505D01*
X69566905Y-116273326D01*
X69532268Y-116249073D01*
X69532266Y-116249072D01*
X69527829Y-116245965D01*
X69333238Y-116155225D01*
X69318572Y-116148386D01*
X69318570Y-116148385D01*
X69313663Y-116146097D01*
X69308438Y-116144697D01*
X69308430Y-116144694D01*
X69090634Y-116086337D01*
X69090630Y-116086336D01*
X69085408Y-116084937D01*
X69080020Y-116084465D01*
X69080017Y-116084465D01*
X68911664Y-116069736D01*
X68911662Y-116069735D01*
X68908966Y-116069500D01*
X68791034Y-116069500D01*
X68788338Y-116069735D01*
X68788335Y-116069736D01*
X68619982Y-116084465D01*
X68619977Y-116084465D01*
X68614592Y-116084937D01*
X68609371Y-116086335D01*
X68609365Y-116086337D01*
X68391569Y-116144694D01*
X68391557Y-116144698D01*
X68386337Y-116146097D01*
X68381432Y-116148383D01*
X68381427Y-116148386D01*
X68177081Y-116243675D01*
X68177077Y-116243677D01*
X68172171Y-116245965D01*
X68167738Y-116249068D01*
X68167731Y-116249073D01*
X67983034Y-116378399D01*
X67983029Y-116378402D01*
X67978599Y-116381505D01*
X67974775Y-116385328D01*
X67974769Y-116385334D01*
X67815336Y-116544767D01*
X67815330Y-116544773D01*
X67811505Y-116548599D01*
X67808406Y-116553023D01*
X67808399Y-116553033D01*
X67679066Y-116737740D01*
X67679061Y-116737747D01*
X67675965Y-116742170D01*
X67673683Y-116747061D01*
X67673678Y-116747072D01*
X67578386Y-116951427D01*
X67578383Y-116951432D01*
X67576097Y-116956337D01*
X67574698Y-116961557D01*
X67574694Y-116961569D01*
X67516337Y-117179365D01*
X67516335Y-117179371D01*
X67514937Y-117184592D01*
X67514465Y-117189977D01*
X67514465Y-117189982D01*
X67505563Y-117291736D01*
X67494341Y-117420000D01*
X53050500Y-117420000D01*
X53050500Y-115210000D01*
X81114341Y-115210000D01*
X81134937Y-115445408D01*
X81136336Y-115450630D01*
X81136337Y-115450634D01*
X81194694Y-115668430D01*
X81194697Y-115668438D01*
X81196097Y-115673663D01*
X81198385Y-115678570D01*
X81198386Y-115678572D01*
X81293678Y-115882927D01*
X81293681Y-115882933D01*
X81295965Y-115887830D01*
X81299064Y-115892257D01*
X81299066Y-115892259D01*
X81428399Y-116076966D01*
X81428402Y-116076970D01*
X81431505Y-116081401D01*
X81598599Y-116248495D01*
X81603031Y-116251598D01*
X81603033Y-116251600D01*
X81784595Y-116378731D01*
X81823460Y-116423049D01*
X81837471Y-116480306D01*
X81823460Y-116537563D01*
X81784595Y-116581881D01*
X81603352Y-116708788D01*
X81595092Y-116715719D01*
X81435719Y-116875092D01*
X81428784Y-116883357D01*
X81299508Y-117067982D01*
X81294110Y-117077332D01*
X81198856Y-117281602D01*
X81195168Y-117291736D01*
X81143056Y-117486219D01*
X81142688Y-117497448D01*
X81153631Y-117500000D01*
X83786369Y-117500000D01*
X83797311Y-117497448D01*
X83796943Y-117486219D01*
X83744831Y-117291736D01*
X83741143Y-117281602D01*
X83645889Y-117077332D01*
X83640491Y-117067982D01*
X83511215Y-116883357D01*
X83504280Y-116875092D01*
X83344909Y-116715721D01*
X83336643Y-116708784D01*
X83155405Y-116581880D01*
X83116540Y-116537562D01*
X83102529Y-116480305D01*
X83116540Y-116423048D01*
X83155406Y-116378730D01*
X83336961Y-116251604D01*
X83336961Y-116251603D01*
X83341401Y-116248495D01*
X83508495Y-116081401D01*
X83644035Y-115887830D01*
X83743903Y-115673663D01*
X83805063Y-115445408D01*
X83819535Y-115280000D01*
X97404341Y-115280000D01*
X97404813Y-115285395D01*
X97418812Y-115445408D01*
X97424937Y-115515408D01*
X97426336Y-115520630D01*
X97426337Y-115520634D01*
X97484694Y-115738430D01*
X97484697Y-115738438D01*
X97486097Y-115743663D01*
X97488385Y-115748570D01*
X97488386Y-115748572D01*
X97583678Y-115952927D01*
X97583681Y-115952933D01*
X97585965Y-115957830D01*
X97589064Y-115962257D01*
X97589066Y-115962259D01*
X97718399Y-116146966D01*
X97718402Y-116146970D01*
X97721505Y-116151401D01*
X97725336Y-116155232D01*
X97843430Y-116273326D01*
X97874726Y-116326072D01*
X97876915Y-116387365D01*
X97849462Y-116442210D01*
X97799083Y-116477189D01*
X97683702Y-116520223D01*
X97667669Y-116526204D01*
X97660572Y-116531516D01*
X97660568Y-116531519D01*
X97559550Y-116607141D01*
X97559546Y-116607144D01*
X97552454Y-116612454D01*
X97547144Y-116619546D01*
X97547141Y-116619550D01*
X97471519Y-116720568D01*
X97471516Y-116720572D01*
X97466204Y-116727669D01*
X97463104Y-116735978D01*
X97463104Y-116735980D01*
X97418620Y-116855247D01*
X97418619Y-116855250D01*
X97415909Y-116862517D01*
X97415079Y-116870227D01*
X97415079Y-116870232D01*
X97409855Y-116918819D01*
X97409854Y-116918831D01*
X97409500Y-116922127D01*
X97409500Y-116925448D01*
X97409500Y-116925449D01*
X97409500Y-118714560D01*
X97409500Y-118714578D01*
X97409501Y-118717872D01*
X97409853Y-118721150D01*
X97409854Y-118721161D01*
X97415079Y-118769768D01*
X97415080Y-118769773D01*
X97415909Y-118777483D01*
X97418619Y-118784749D01*
X97418620Y-118784753D01*
X97452217Y-118874831D01*
X97466204Y-118912331D01*
X97552454Y-119027546D01*
X97667669Y-119113796D01*
X97802517Y-119164091D01*
X97862127Y-119170500D01*
X99657872Y-119170499D01*
X99717483Y-119164091D01*
X99852331Y-119113796D01*
X99967546Y-119027546D01*
X100053796Y-118912331D01*
X100104091Y-118777483D01*
X100110500Y-118717873D01*
X100110499Y-117440000D01*
X103184341Y-117440000D01*
X103184813Y-117445395D01*
X103202715Y-117650017D01*
X103204937Y-117675408D01*
X103206336Y-117680630D01*
X103206337Y-117680634D01*
X103264694Y-117898430D01*
X103264697Y-117898438D01*
X103266097Y-117903663D01*
X103365965Y-118117829D01*
X103501505Y-118311401D01*
X103668599Y-118478495D01*
X103862171Y-118614035D01*
X104076337Y-118713903D01*
X104081567Y-118715304D01*
X104081569Y-118715305D01*
X104103495Y-118721180D01*
X104304592Y-118775063D01*
X104481034Y-118790500D01*
X104596258Y-118790500D01*
X104598966Y-118790500D01*
X104775408Y-118775063D01*
X105003663Y-118713903D01*
X105217829Y-118614035D01*
X105411401Y-118478495D01*
X105578495Y-118311401D01*
X105714035Y-118117830D01*
X105813903Y-117903663D01*
X105875063Y-117675408D01*
X105895659Y-117440000D01*
X105875063Y-117204592D01*
X105813903Y-116976337D01*
X105714035Y-116762171D01*
X105578495Y-116568599D01*
X105411401Y-116401505D01*
X105217829Y-116265965D01*
X105003663Y-116166097D01*
X104998438Y-116164697D01*
X104998430Y-116164694D01*
X104780634Y-116106337D01*
X104780630Y-116106336D01*
X104775408Y-116104937D01*
X104770020Y-116104465D01*
X104770017Y-116104465D01*
X104601664Y-116089736D01*
X104601662Y-116089735D01*
X104598966Y-116089500D01*
X104481034Y-116089500D01*
X104478338Y-116089735D01*
X104478335Y-116089736D01*
X104309982Y-116104465D01*
X104309977Y-116104465D01*
X104304592Y-116104937D01*
X104299371Y-116106335D01*
X104299365Y-116106337D01*
X104081569Y-116164694D01*
X104081557Y-116164698D01*
X104076337Y-116166097D01*
X104071432Y-116168383D01*
X104071427Y-116168386D01*
X103867081Y-116263675D01*
X103867077Y-116263677D01*
X103862171Y-116265965D01*
X103857738Y-116269068D01*
X103857731Y-116269073D01*
X103673034Y-116398399D01*
X103673029Y-116398402D01*
X103668599Y-116401505D01*
X103664775Y-116405328D01*
X103664769Y-116405334D01*
X103505336Y-116564767D01*
X103505330Y-116564773D01*
X103501505Y-116568599D01*
X103498406Y-116573023D01*
X103498399Y-116573033D01*
X103369066Y-116757740D01*
X103369061Y-116757747D01*
X103365965Y-116762170D01*
X103363683Y-116767061D01*
X103363678Y-116767072D01*
X103268386Y-116971427D01*
X103268383Y-116971432D01*
X103266097Y-116976337D01*
X103264698Y-116981557D01*
X103264694Y-116981569D01*
X103206337Y-117199365D01*
X103206335Y-117199371D01*
X103204937Y-117204592D01*
X103204465Y-117209977D01*
X103204465Y-117209982D01*
X103186563Y-117414605D01*
X103184341Y-117440000D01*
X100110499Y-117440000D01*
X100110499Y-116922128D01*
X100104091Y-116862517D01*
X100053796Y-116727669D01*
X99967546Y-116612454D01*
X99926704Y-116581880D01*
X99859431Y-116531519D01*
X99859430Y-116531518D01*
X99852331Y-116526204D01*
X99782359Y-116500106D01*
X99720916Y-116477189D01*
X99670537Y-116442210D01*
X99643084Y-116387365D01*
X99645273Y-116326072D01*
X99676566Y-116273329D01*
X99798495Y-116151401D01*
X99934035Y-115957830D01*
X100033903Y-115743663D01*
X100095063Y-115515408D01*
X100115659Y-115280000D01*
X100095063Y-115044592D01*
X100033903Y-114816337D01*
X99934035Y-114602171D01*
X99798495Y-114408599D01*
X99631401Y-114241505D01*
X99626968Y-114238401D01*
X99626961Y-114238395D01*
X99445842Y-114111575D01*
X99406976Y-114067257D01*
X99392965Y-114010000D01*
X99406976Y-113952743D01*
X99445842Y-113908425D01*
X99626961Y-113781604D01*
X99626961Y-113781603D01*
X99631401Y-113778495D01*
X99798495Y-113611401D01*
X99934035Y-113417830D01*
X100033903Y-113203663D01*
X100095063Y-112975408D01*
X100115659Y-112740000D01*
X100095063Y-112504592D01*
X100033903Y-112276337D01*
X99934035Y-112062171D01*
X99798495Y-111868599D01*
X99631401Y-111701505D01*
X99626968Y-111698401D01*
X99626961Y-111698395D01*
X99445842Y-111571575D01*
X99406976Y-111527257D01*
X99392965Y-111470000D01*
X99406976Y-111412743D01*
X99445842Y-111368425D01*
X99626961Y-111241604D01*
X99626961Y-111241603D01*
X99631401Y-111238495D01*
X99798495Y-111071401D01*
X99934035Y-110877830D01*
X100030948Y-110670000D01*
X103134341Y-110670000D01*
X103134813Y-110675395D01*
X103152911Y-110882259D01*
X103154937Y-110905408D01*
X103156336Y-110910630D01*
X103156337Y-110910634D01*
X103214694Y-111128430D01*
X103214697Y-111128438D01*
X103216097Y-111133663D01*
X103315965Y-111347829D01*
X103319072Y-111352266D01*
X103319073Y-111352268D01*
X103361418Y-111412743D01*
X103451505Y-111541401D01*
X103618599Y-111708495D01*
X103812171Y-111844035D01*
X104026337Y-111943903D01*
X104254592Y-112005063D01*
X104431034Y-112020500D01*
X104546258Y-112020500D01*
X104548966Y-112020500D01*
X104725408Y-112005063D01*
X104953663Y-111943903D01*
X105167829Y-111844035D01*
X105361401Y-111708495D01*
X105528495Y-111541401D01*
X105664035Y-111347830D01*
X105763903Y-111133663D01*
X105825063Y-110905408D01*
X105845659Y-110670000D01*
X105825063Y-110434592D01*
X105763903Y-110206337D01*
X105664035Y-109992171D01*
X105528495Y-109798599D01*
X105361401Y-109631505D01*
X105228431Y-109538399D01*
X105172268Y-109499073D01*
X105172266Y-109499072D01*
X105167829Y-109495965D01*
X104953663Y-109396097D01*
X104948438Y-109394697D01*
X104948430Y-109394694D01*
X104730634Y-109336337D01*
X104730630Y-109336336D01*
X104725408Y-109334937D01*
X104720020Y-109334465D01*
X104720017Y-109334465D01*
X104551664Y-109319736D01*
X104551662Y-109319735D01*
X104548966Y-109319500D01*
X104431034Y-109319500D01*
X104428338Y-109319735D01*
X104428335Y-109319736D01*
X104259982Y-109334465D01*
X104259977Y-109334465D01*
X104254592Y-109334937D01*
X104249371Y-109336335D01*
X104249365Y-109336337D01*
X104031569Y-109394694D01*
X104031557Y-109394698D01*
X104026337Y-109396097D01*
X104021432Y-109398383D01*
X104021427Y-109398386D01*
X103817081Y-109493675D01*
X103817077Y-109493677D01*
X103812171Y-109495965D01*
X103807738Y-109499068D01*
X103807731Y-109499073D01*
X103623034Y-109628399D01*
X103623029Y-109628402D01*
X103618599Y-109631505D01*
X103614775Y-109635328D01*
X103614769Y-109635334D01*
X103455336Y-109794767D01*
X103455330Y-109794773D01*
X103451505Y-109798599D01*
X103448406Y-109803023D01*
X103448399Y-109803033D01*
X103319066Y-109987740D01*
X103319061Y-109987747D01*
X103315965Y-109992170D01*
X103313683Y-109997061D01*
X103313678Y-109997072D01*
X103218386Y-110201427D01*
X103218383Y-110201432D01*
X103216097Y-110206337D01*
X103214698Y-110211557D01*
X103214694Y-110211569D01*
X103156337Y-110429365D01*
X103156335Y-110429371D01*
X103154937Y-110434592D01*
X103134341Y-110670000D01*
X100030948Y-110670000D01*
X100033903Y-110663663D01*
X100095063Y-110435408D01*
X100115659Y-110200000D01*
X100095063Y-109964592D01*
X100033903Y-109736337D01*
X99934035Y-109522171D01*
X99798495Y-109328599D01*
X99631401Y-109161505D01*
X99626970Y-109158402D01*
X99626966Y-109158399D01*
X99442259Y-109029066D01*
X99442257Y-109029064D01*
X99437830Y-109025965D01*
X99432933Y-109023681D01*
X99432927Y-109023678D01*
X99228572Y-108928386D01*
X99228570Y-108928385D01*
X99223663Y-108926097D01*
X99218438Y-108924697D01*
X99218430Y-108924694D01*
X99000634Y-108866337D01*
X99000630Y-108866336D01*
X98995408Y-108864937D01*
X98990020Y-108864465D01*
X98990017Y-108864465D01*
X98765395Y-108844813D01*
X98760000Y-108844341D01*
X98754605Y-108844813D01*
X98529982Y-108864465D01*
X98529977Y-108864465D01*
X98524592Y-108864937D01*
X98519371Y-108866335D01*
X98519365Y-108866337D01*
X98301569Y-108924694D01*
X98301557Y-108924698D01*
X98296337Y-108926097D01*
X98291432Y-108928383D01*
X98291427Y-108928386D01*
X98087081Y-109023675D01*
X98087077Y-109023677D01*
X98082171Y-109025965D01*
X98077738Y-109029068D01*
X98077731Y-109029073D01*
X97893034Y-109158399D01*
X97893029Y-109158402D01*
X97888599Y-109161505D01*
X97884775Y-109165328D01*
X97884769Y-109165334D01*
X97725334Y-109324769D01*
X97725328Y-109324775D01*
X97721505Y-109328599D01*
X97718402Y-109333029D01*
X97718399Y-109333034D01*
X97589073Y-109517731D01*
X97589068Y-109517738D01*
X97585965Y-109522171D01*
X97583677Y-109527077D01*
X97583675Y-109527081D01*
X97488386Y-109731427D01*
X97488383Y-109731432D01*
X97486097Y-109736337D01*
X97484698Y-109741557D01*
X97484694Y-109741569D01*
X97426337Y-109959365D01*
X97426335Y-109959371D01*
X97424937Y-109964592D01*
X97424465Y-109969977D01*
X97424465Y-109969982D01*
X97412090Y-110111427D01*
X97404341Y-110200000D01*
X97424937Y-110435408D01*
X97426336Y-110440630D01*
X97426337Y-110440634D01*
X97484694Y-110658430D01*
X97484697Y-110658438D01*
X97486097Y-110663663D01*
X97488385Y-110668570D01*
X97488386Y-110668572D01*
X97583678Y-110872927D01*
X97583681Y-110872933D01*
X97585965Y-110877830D01*
X97589064Y-110882257D01*
X97589066Y-110882259D01*
X97718399Y-111066966D01*
X97718402Y-111066970D01*
X97721505Y-111071401D01*
X97888599Y-111238495D01*
X97893032Y-111241599D01*
X97893038Y-111241604D01*
X98074158Y-111368425D01*
X98113024Y-111412743D01*
X98127035Y-111470000D01*
X98113024Y-111527257D01*
X98074159Y-111571575D01*
X97893041Y-111698395D01*
X97888599Y-111701505D01*
X97884775Y-111705328D01*
X97884769Y-111705334D01*
X97725334Y-111864769D01*
X97725328Y-111864775D01*
X97721505Y-111868599D01*
X97718402Y-111873029D01*
X97718399Y-111873034D01*
X97589073Y-112057731D01*
X97589068Y-112057738D01*
X97585965Y-112062171D01*
X97583677Y-112067077D01*
X97583675Y-112067081D01*
X97488386Y-112271427D01*
X97488383Y-112271432D01*
X97486097Y-112276337D01*
X97484698Y-112281557D01*
X97484694Y-112281569D01*
X97426337Y-112499365D01*
X97426335Y-112499371D01*
X97424937Y-112504592D01*
X97404341Y-112740000D01*
X97404813Y-112745395D01*
X97418812Y-112905408D01*
X97424937Y-112975408D01*
X97426336Y-112980630D01*
X97426337Y-112980634D01*
X97484694Y-113198430D01*
X97484697Y-113198438D01*
X97486097Y-113203663D01*
X97488385Y-113208570D01*
X97488386Y-113208572D01*
X97583678Y-113412927D01*
X97583681Y-113412933D01*
X97585965Y-113417830D01*
X97589064Y-113422257D01*
X97589066Y-113422259D01*
X97718399Y-113606966D01*
X97718402Y-113606970D01*
X97721505Y-113611401D01*
X97888599Y-113778495D01*
X97893032Y-113781599D01*
X97893038Y-113781604D01*
X98074158Y-113908425D01*
X98113024Y-113952743D01*
X98127035Y-114010000D01*
X98113024Y-114067257D01*
X98074159Y-114111575D01*
X97893041Y-114238395D01*
X97888599Y-114241505D01*
X97884775Y-114245328D01*
X97884769Y-114245334D01*
X97725334Y-114404769D01*
X97725328Y-114404775D01*
X97721505Y-114408599D01*
X97718402Y-114413029D01*
X97718399Y-114413034D01*
X97589073Y-114597731D01*
X97589068Y-114597738D01*
X97585965Y-114602171D01*
X97583677Y-114607077D01*
X97583675Y-114607081D01*
X97488386Y-114811427D01*
X97488383Y-114811432D01*
X97486097Y-114816337D01*
X97484698Y-114821557D01*
X97484694Y-114821569D01*
X97426337Y-115039365D01*
X97426335Y-115039371D01*
X97424937Y-115044592D01*
X97404341Y-115280000D01*
X83819535Y-115280000D01*
X83825659Y-115210000D01*
X83805063Y-114974592D01*
X83743903Y-114746337D01*
X83644035Y-114532171D01*
X83508495Y-114338599D01*
X83341401Y-114171505D01*
X83336968Y-114168401D01*
X83336961Y-114168395D01*
X83155842Y-114041575D01*
X83116976Y-113997257D01*
X83102965Y-113940000D01*
X83116976Y-113882743D01*
X83155842Y-113838425D01*
X83336961Y-113711604D01*
X83336961Y-113711603D01*
X83341401Y-113708495D01*
X83508495Y-113541401D01*
X83644035Y-113347830D01*
X83743903Y-113133663D01*
X83805063Y-112905408D01*
X83825659Y-112670000D01*
X83805063Y-112434592D01*
X83743903Y-112206337D01*
X83644035Y-111992171D01*
X83508495Y-111798599D01*
X83386569Y-111676673D01*
X83355273Y-111623927D01*
X83353084Y-111562634D01*
X83380537Y-111507789D01*
X83430916Y-111472810D01*
X83562331Y-111423796D01*
X83677546Y-111337546D01*
X83763796Y-111222331D01*
X83814091Y-111087483D01*
X83820500Y-111027873D01*
X83820499Y-109232128D01*
X83814091Y-109172517D01*
X83763796Y-109037669D01*
X83677546Y-108922454D01*
X83602583Y-108866337D01*
X83569431Y-108841519D01*
X83569430Y-108841518D01*
X83562331Y-108836204D01*
X83427483Y-108785909D01*
X83419770Y-108785079D01*
X83419767Y-108785079D01*
X83371180Y-108779855D01*
X83371169Y-108779854D01*
X83367873Y-108779500D01*
X83364550Y-108779500D01*
X81575439Y-108779500D01*
X81575420Y-108779500D01*
X81572128Y-108779501D01*
X81568850Y-108779853D01*
X81568838Y-108779854D01*
X81520231Y-108785079D01*
X81520225Y-108785080D01*
X81512517Y-108785909D01*
X81505252Y-108788618D01*
X81505246Y-108788620D01*
X81385980Y-108833104D01*
X81385978Y-108833104D01*
X81377669Y-108836204D01*
X81370572Y-108841516D01*
X81370568Y-108841519D01*
X81269550Y-108917141D01*
X81269546Y-108917144D01*
X81262454Y-108922454D01*
X81257144Y-108929546D01*
X81257141Y-108929550D01*
X81181519Y-109030568D01*
X81181516Y-109030572D01*
X81176204Y-109037669D01*
X81173104Y-109045978D01*
X81173104Y-109045980D01*
X81128620Y-109165247D01*
X81128619Y-109165250D01*
X81125909Y-109172517D01*
X81125079Y-109180227D01*
X81125079Y-109180232D01*
X81119855Y-109228819D01*
X81119854Y-109228831D01*
X81119500Y-109232127D01*
X81119500Y-109235448D01*
X81119500Y-109235449D01*
X81119500Y-111024560D01*
X81119500Y-111024578D01*
X81119501Y-111027872D01*
X81119853Y-111031150D01*
X81119854Y-111031161D01*
X81125079Y-111079768D01*
X81125080Y-111079773D01*
X81125909Y-111087483D01*
X81128619Y-111094749D01*
X81128620Y-111094753D01*
X81141181Y-111128430D01*
X81176204Y-111222331D01*
X81181518Y-111229430D01*
X81181519Y-111229431D01*
X81202778Y-111257830D01*
X81262454Y-111337546D01*
X81377669Y-111423796D01*
X81487405Y-111464725D01*
X81509082Y-111472810D01*
X81559462Y-111507789D01*
X81586915Y-111562633D01*
X81584726Y-111623926D01*
X81553431Y-111676672D01*
X81431505Y-111798599D01*
X81428402Y-111803029D01*
X81428399Y-111803034D01*
X81299073Y-111987731D01*
X81299068Y-111987738D01*
X81295965Y-111992171D01*
X81293677Y-111997077D01*
X81293675Y-111997081D01*
X81198386Y-112201427D01*
X81198383Y-112201432D01*
X81196097Y-112206337D01*
X81194698Y-112211557D01*
X81194694Y-112211569D01*
X81136337Y-112429365D01*
X81136335Y-112429371D01*
X81134937Y-112434592D01*
X81134465Y-112439977D01*
X81134465Y-112439982D01*
X81128341Y-112509982D01*
X81114341Y-112670000D01*
X81134937Y-112905408D01*
X81136336Y-112910630D01*
X81136337Y-112910634D01*
X81194694Y-113128430D01*
X81194697Y-113128438D01*
X81196097Y-113133663D01*
X81198385Y-113138570D01*
X81198386Y-113138572D01*
X81293678Y-113342927D01*
X81293681Y-113342933D01*
X81295965Y-113347830D01*
X81299064Y-113352257D01*
X81299066Y-113352259D01*
X81428399Y-113536966D01*
X81428402Y-113536970D01*
X81431505Y-113541401D01*
X81598599Y-113708495D01*
X81603032Y-113711599D01*
X81603038Y-113711604D01*
X81784158Y-113838425D01*
X81823024Y-113882743D01*
X81837035Y-113940000D01*
X81823024Y-113997257D01*
X81784159Y-114041575D01*
X81603041Y-114168395D01*
X81598599Y-114171505D01*
X81594775Y-114175328D01*
X81594769Y-114175334D01*
X81435334Y-114334769D01*
X81435328Y-114334775D01*
X81431505Y-114338599D01*
X81428402Y-114343029D01*
X81428399Y-114343034D01*
X81299073Y-114527731D01*
X81299068Y-114527738D01*
X81295965Y-114532171D01*
X81293677Y-114537077D01*
X81293675Y-114537081D01*
X81198386Y-114741427D01*
X81198383Y-114741432D01*
X81196097Y-114746337D01*
X81194698Y-114751557D01*
X81194694Y-114751569D01*
X81136337Y-114969365D01*
X81136335Y-114969371D01*
X81134937Y-114974592D01*
X81134465Y-114979977D01*
X81134465Y-114979982D01*
X81128341Y-115049982D01*
X81114341Y-115210000D01*
X53050500Y-115210000D01*
X53050500Y-110580000D01*
X67324341Y-110580000D01*
X67344937Y-110815408D01*
X67346336Y-110820630D01*
X67346337Y-110820634D01*
X67404694Y-111038430D01*
X67404697Y-111038438D01*
X67406097Y-111043663D01*
X67408385Y-111048570D01*
X67408386Y-111048572D01*
X67420818Y-111075232D01*
X67505965Y-111257829D01*
X67641505Y-111451401D01*
X67808599Y-111618495D01*
X68002171Y-111754035D01*
X68216337Y-111853903D01*
X68444592Y-111915063D01*
X68621034Y-111930500D01*
X68736258Y-111930500D01*
X68738966Y-111930500D01*
X68915408Y-111915063D01*
X69143663Y-111853903D01*
X69357829Y-111754035D01*
X69551401Y-111618495D01*
X69718495Y-111451401D01*
X69854035Y-111257830D01*
X69953903Y-111043663D01*
X70015063Y-110815408D01*
X70035659Y-110580000D01*
X70015063Y-110344592D01*
X69953903Y-110116337D01*
X69854035Y-109902171D01*
X69718495Y-109708599D01*
X69551401Y-109541505D01*
X69357829Y-109405965D01*
X69289908Y-109374293D01*
X69148572Y-109308386D01*
X69148570Y-109308385D01*
X69143663Y-109306097D01*
X69138438Y-109304697D01*
X69138430Y-109304694D01*
X68920634Y-109246337D01*
X68920630Y-109246336D01*
X68915408Y-109244937D01*
X68910020Y-109244465D01*
X68910017Y-109244465D01*
X68741664Y-109229736D01*
X68741662Y-109229735D01*
X68738966Y-109229500D01*
X68621034Y-109229500D01*
X68618338Y-109229735D01*
X68618335Y-109229736D01*
X68449982Y-109244465D01*
X68449977Y-109244465D01*
X68444592Y-109244937D01*
X68439371Y-109246335D01*
X68439365Y-109246337D01*
X68221569Y-109304694D01*
X68221557Y-109304698D01*
X68216337Y-109306097D01*
X68211432Y-109308383D01*
X68211427Y-109308386D01*
X68007081Y-109403675D01*
X68007077Y-109403677D01*
X68002171Y-109405965D01*
X67997738Y-109409068D01*
X67997731Y-109409073D01*
X67813034Y-109538399D01*
X67813029Y-109538402D01*
X67808599Y-109541505D01*
X67804775Y-109545328D01*
X67804769Y-109545334D01*
X67645336Y-109704767D01*
X67645330Y-109704773D01*
X67641505Y-109708599D01*
X67638406Y-109713023D01*
X67638399Y-109713033D01*
X67509066Y-109897740D01*
X67509061Y-109897747D01*
X67505965Y-109902170D01*
X67503683Y-109907061D01*
X67503678Y-109907072D01*
X67408386Y-110111427D01*
X67408383Y-110111432D01*
X67406097Y-110116337D01*
X67404698Y-110121557D01*
X67404694Y-110121569D01*
X67346337Y-110339365D01*
X67346335Y-110339371D01*
X67344937Y-110344592D01*
X67324341Y-110580000D01*
X53050500Y-110580000D01*
X53050500Y-108004500D01*
X53067113Y-107942500D01*
X53112500Y-107897113D01*
X53174500Y-107880500D01*
X107115500Y-107880500D01*
X107177500Y-107897113D01*
G37*
%TD.AperFunction*%
%TD*%
M02*
